<?xml version="1.0" encoding="UTF-8" standalone="no"?>
<!-- Created with Inkscape (http://www.inkscape.org/) -->
<svg id="svg3029" xmlns:rdf="http://www.w3.org/1999/02/22-rdf-syntax-ns#" xmlns="http://www.w3.org/2000/svg" height="30" width="30" version="1.1" xmlns:cc="http://creativecommons.org/ns#" xmlns:dc="http://purl.org/dc/elements/1.1/">
 <metadata id="metadata3034">
  <rdf:RDF>
   <cc:Work rdf:about="">
    <dc:format>image/svg+xml</dc:format>
    <dc:type rdf:resource="http://purl.org/dc/dcmitype/StillImage"/>
    <dc:title/>
   </cc:Work>
  </rdf:RDF>
 </metadata>
 <g id="layer1" transform="translate(-4.987382,-27.375932)">
  <path id="path3037" d="m417.14,1140.9c0,318.75-270.55,577.14-604.29,577.14s-604.29-258.4-604.29-577.14c0-318.75,270.55-577.14,604.29-577.14s604.29,258.4,604.29,577.14z" transform="matrix(0.02481892,4.5549699e-4,-4.4846313e-4,0.02598563,25.14373,12.813296)" fill="#c62032"/>
  <g id="flowRoot4317" style="letter-spacing:0px;word-spacing:0px;" font-weight="normal" transform="matrix(0.62621568,0,0,0.62619661,2.8347162,19.97943)" font-size="40px" font-style="normal" font-family="Sans" line-height="125%" fill="#FFF">
   <path id="path4326" d="m16.02,50.298,0-3.5156l14.668-18.34c1.0416-1.3021,2.0312-2.4349,2.9688-3.3984h-15.977v-3.3789h20.508v3.3789l-16.074,19.863-1.7383,2.0117h18.281v3.3789z"/>
  </g>
 </g>
</svg>
