<?xml version="1.0" encoding="UTF-8" standalone="no"?>
<svg id="svg2" xmlns:rdf="http://www.w3.org/1999/02/22-rdf-syntax-ns#" xmlns="http://www.w3.org/2000/svg" height="30" width="30" version="1.1" xmlns:cc="http://creativecommons.org/ns#" xmlns:dc="http://purl.org/dc/elements/1.1/" viewBox="0 0 30.000208 29.999857">
 <metadata id="metadata7">
  <rdf:RDF>
   <cc:Work rdf:about="">
    <dc:format>image/svg+xml</dc:format>
    <dc:type rdf:resource="http://purl.org/dc/dcmitype/StillImage"/>
    <dc:title/>
   </cc:Work>
  </rdf:RDF>
 </metadata>
 <g id="layer1" transform="translate(-419.29 -357.36)">
  <path id="path3037" d="m449.28 372.64c-0.14294 8.2829-6.9736 14.874-15.257 14.722-8.2831-0.15202-14.882-6.9899-14.739-15.273 0.14295-8.2829 6.9736-14.874 15.257-14.722 8.2831 0.15202 14.882 6.9899 14.739 15.273z" fill="#c62032"/>
  <g id="g6" fill="#fff" transform="matrix(.0049311 0 0 -.0046206 421.71 383.91)">
   <path id="path10" d="m1288 4123-3-508-48-3c-27-2-55 2-63 9-12 10-14 90-14 500 0 555 10 502-90 471l-55-18-5-479-5-480-53-3c-31-2-60 2-68 9-12 10-14 82-14 435 0 390-1 424-17 424-9 0-60-44-114-98-86-87-103-111-147-203-84-172-85-176-89-571l-5-348h671c369 0 671 4 671 8 0 13 119 107 191 150 87 53 188 95 295 123 131 34 340 33 475-3 160-43 317-124 436-225l62-53h666 667l-4 353c-4 329-6 357-27 427-42 142-93 224-215 346-122 121-203 172-346 216l-75 23-1197 3-1198 3-2-508-3-508-48-3c-27-2-55 2-63 9-12 10-14 91-14 510v499h-75-75l-2-507zm2872 122c17-9 39-33 50-55 18-36 20-59 20-277 0-344 11-333-329-333-258 0-289 7-322 72-19 37-20 55-17 289l3 251 37 34 38 34h245c201 0 251-3 275-15z"/>
   <path id="path12" d="m2445 3353c-352-49-638-331-695-686-17-103-8-270 20-367 39-137 92-223 210-340 117-118 193-167 312-205 468-148 948 112 1069 580 27 104 29 300 5 395-44 171-98 264-231 395-129 129-240 187-413 221-69 13-207 17-277 7zm220-248c78-16 234-90 280-133 81-75 147-183 181-298 25-82 22-218-5-304-76-241-306-413-551-413-90 0-159 18-260 66-195 92-323 297-323 517-1 269 194 506 464 564 84 19 129 19 214 1z"/>
   <path id="path14" d="m502 2153 3-1008 23-75c44-143 95-224 216-346 124-123 207-174 352-216l79-23h1385 1385l79 23c159 46 270 115 389 242 83 88 151 206 189 330l23 75 3 1003 3 1002h-616c-536 0-615-2-615-15 0-8 16-40 36-70 189-297 208-678 50-994-162-322-460-529-823-571-292-34-630 92-840 314-84 88-131 158-193 289-73 151-94 249-94 427 0 117 4 162 22 234 26 105 74 219 125 299 20 32 37 64 37 72 0 13-78 15-610 15h-611l3-1007z"/>
  </g>
 </g>
</svg>
