<?xml version="1.0" encoding="UTF-8" standalone="no"?>
<!-- Generator: Adobe Illustrator 19.0.0, SVG Export Plug-In . SVG Version: 6.00 Build 0)  -->

<svg
   xmlns:dc="http://purl.org/dc/elements/1.1/"
   xmlns:cc="http://creativecommons.org/ns#"
   xmlns:rdf="http://www.w3.org/1999/02/22-rdf-syntax-ns#"
   xmlns:svg="http://www.w3.org/2000/svg"
   xmlns="http://www.w3.org/2000/svg"
   xmlns:sodipodi="http://sodipodi.sourceforge.net/DTD/sodipodi-0.dtd"
   xmlns:inkscape="http://www.inkscape.org/namespaces/inkscape"
   id="Layer_1"
   style="enable-background:new 567.8 -8.4 4745.1 1207;"
   xml:space="preserve"
   height="1207px"
   viewBox="567.8 -8.4 4745.1 1207"
   width="4745.1px"
   version="1.1"
   y="0px"
   x="0px"
   inkscape:version="0.48.5 r10040"
   sodipodi:docname="ball.svg"><defs
   id="defs2993" /><sodipodi:namedview
   pagecolor="#ffffff"
   bordercolor="#666666"
   borderopacity="1"
   objecttolerance="10"
   gridtolerance="10"
   guidetolerance="10"
   inkscape:pageopacity="0"
   inkscape:pageshadow="2"
   inkscape:window-width="1434"
   inkscape:window-height="912"
   id="namedview2991"
   showgrid="false"
   inkscape:zoom="0.55981979"
   inkscape:cx="1563.2263"
   inkscape:cy="351.67567"
   inkscape:window-x="1035"
   inkscape:window-y="601"
   inkscape:window-maximized="0"
   inkscape:current-layer="Layer_1" /><metadata
   id="metadata3018"><rdf:RDF><cc:Work
       rdf:about=""><dc:format>image/svg+xml</dc:format><dc:type
         rdf:resource="http://purl.org/dc/dcmitype/StillImage" /><dc:title /></cc:Work></rdf:RDF></metadata>
<style
   id="style3010"
   type="text/css">
    .st0{fill:#fff5b5;}
</style>
<path
   id="path3022"
   d="m2024.1,1061a335.14,335.14,0,1,1,-670.29,0,335.14,335.14,0,1,1,670.29,0z"
   fill-opacity="0"
   transform="matrix(1,0,0,1.0891089,421.79687,-351.81317)" /><path
   id="path3792"
   d="m1493.2,412.28a82.956,174.21,0,1,1,-165.91,0,82.956,174.21,0,1,1,165.91,0z"
   fill-opacity="0"
   transform="translate(567.79995,-8.4)" /><path
   id="path3808"
   d="m 2687.6465,858.23399 a 267.50072,267.50072 0 0 1 -535.0014,0 267.50072,267.50072 0 1 1 535.0014,0 z"
   inkscape:connector-curvature="0"
   style="fill:#ffdc00;fill-opacity:1" /></svg>