<?xml version="1.0" encoding="utf-8"?>
<!-- Generator: Adobe Illustrator 16.0.4, SVG Export Plug-In . SVG Version: 6.00 Build 0)  -->
<!DOCTYPE svg PUBLIC "-//W3C//DTD SVG 1.1//EN" "http://www.w3.org/Graphics/SVG/1.1/DTD/svg11.dtd">
<svg version="1.1" id="Layer_1" xmlns="http://www.w3.org/2000/svg" xmlns:xlink="http://www.w3.org/1999/xlink" x="0px" y="0px"
	 width="48px" height="48px" viewBox="0 0 48 48" enable-background="new 0 0 48 48" xml:space="preserve">
<path d="M24.151,16.257l6.706,3.873v7.742l-6.706,3.871l-6.706-3.871V20.13L24.151,16.257 M24.152,14.242
	c-0.314,0-0.628,0.069-0.866,0.206l-6.974,4.027c-0.477,0.275-0.866,0.95-0.866,1.5v8.052c0,0.55,0.39,1.225,0.866,1.5l6.974,4.025
	c0.238,0.138,0.552,0.207,0.866,0.207s0.627-0.069,0.866-0.207l6.974-4.025c0.477-0.275,0.866-0.95,0.866-1.5v-8.052
	c0-0.55-0.39-1.225-0.866-1.5l-6.974-4.027C24.779,14.311,24.466,14.242,24.152,14.242L24.152,14.242z"/>
</svg>
