<?xml version="1.0" encoding="utf-8"?>
<!-- Generator: Adobe Illustrator 16.0.4, SVG Export Plug-In . SVG Version: 6.00 Build 0)  -->
<!DOCTYPE svg PUBLIC "-//W3C//DTD SVG 1.1//EN" "http://www.w3.org/Graphics/SVG/1.1/DTD/svg11.dtd">
<svg version="1.1" id="Layer_1" xmlns="http://www.w3.org/2000/svg" xmlns:xlink="http://www.w3.org/1999/xlink" x="0px" y="0px"
	 width="48px" height="48px" viewBox="0 0 48 48" enable-background="new 0 0 48 48" xml:space="preserve">
<path d="M10.666,10.968v26.063H2V10.968H10.666 M11.666,8.968H1c-0.55,0-1,0.45-1,1v28.063c0,0.55,0.45,1,1,1h10.666
	c0.55,0,1-0.45,1-1V9.968C12.666,9.418,12.216,8.968,11.666,8.968L11.666,8.968z"/>
<path d="M28.333,10.968v26.063h-8.666V10.968H28.333 M29.333,8.968H18.667c-0.55,0-1,0.45-1,1v28.063c0,0.55,0.45,1,1,1h10.666
	c0.55,0,1-0.45,1-1V9.968C30.333,9.418,29.883,8.968,29.333,8.968L29.333,8.968z"/>
<path d="M46,10.968v26.063h-8.666V10.968H46 M47,8.968H36.334c-0.55,0-1,0.45-1,1v28.063c0,0.55,0.45,1,1,1H47c0.55,0,1-0.45,1-1
	V9.968C48,9.418,47.55,8.968,47,8.968L47,8.968z"/>
</svg>
