<?xml version="1.0" encoding="utf-8"?>
<!-- Generator: Adobe Illustrator 16.0.4, SVG Export Plug-In . SVG Version: 6.00 Build 0)  -->
<!DOCTYPE svg PUBLIC "-//W3C//DTD SVG 1.1//EN" "http://www.w3.org/Graphics/SVG/1.1/DTD/svg11.dtd">
<svg version="1.1" id="Layer_1" xmlns="http://www.w3.org/2000/svg" xmlns:xlink="http://www.w3.org/1999/xlink" x="0px" y="0px"
	 width="48px" height="48px" viewBox="0 0 48 48" enable-background="new 0 0 48 48" xml:space="preserve">
<path d="M47.139,25.156l-6.806-3.932v-7.876c0-0.546-0.389-1.218-0.862-1.491L32.54,7.853c-0.237-0.137-0.548-0.205-0.86-0.205
	c-0.313,0-0.626,0.068-0.862,0.205l-6.823,3.939l-6.821-3.939c-0.237-0.137-0.549-0.205-0.861-0.205s-0.625,0.068-0.861,0.205
	l-6.934,4.004c-0.474,0.273-0.861,0.945-0.861,1.491v7.882l-6.793,3.926C0.387,25.43,0,26.1,0,26.646v8.006
	c0,0.547,0.387,1.217,0.861,1.49l6.933,4.004c0.237,0.137,0.548,0.205,0.861,0.205c0.312,0,0.624-0.068,0.861-0.205l6.808-3.93
	l6.806,3.93c0.237,0.137,0.549,0.205,0.861,0.205s0.625-0.068,0.862-0.205l6.814-3.934l6.812,3.934
	c0.236,0.137,0.549,0.205,0.861,0.205s0.624-0.068,0.861-0.205l6.935-4.004C47.612,35.869,48,35.199,48,34.652v-8.006
	C48,26.1,47.612,25.43,47.139,25.156z M25.011,13.502l6.669-3.85l6.665,3.85v7.699l-6.665,3.848l-6.669-3.848V13.502z M9.644,13.502
	l6.668-3.85l6.667,3.85v7.699l-6.667,3.848l-6.668-3.848V13.502z M15.325,34.498l-6.669,3.85l-6.667-3.85v-7.697l6.667-3.852
	l6.669,3.852V34.498z M30.662,34.498l-6.669,3.85l-6.667-3.85v-7.697l6.667-3.852l6.669,3.852V34.498z M46.012,34.498l-6.669,3.85
	l-6.667-3.85v-7.697l6.667-3.852l6.669,3.852V34.498z"/>
</svg>
