<?xml version="1.0" encoding="utf-8"?>
<!-- Generator: Adobe Illustrator 16.0.4, SVG Export Plug-In . SVG Version: 6.00 Build 0)  -->
<!DOCTYPE svg PUBLIC "-//W3C//DTD SVG 1.1//EN" "http://www.w3.org/Graphics/SVG/1.1/DTD/svg11.dtd">
<svg version="1.1" id="Layer_1" xmlns="http://www.w3.org/2000/svg" xmlns:xlink="http://www.w3.org/1999/xlink" x="0px" y="0px"
	 width="48px" height="48px" viewBox="0 0 48 48" enable-background="new 0 0 48 48" xml:space="preserve">
<path d="M46,22H26V2c0-1.1-0.9-2-2-2c-1.1,0-2,0.9-2,2v20H2c-1.1,0-2,0.9-2,2c0,1.1,0.9,2,2,2h20v20c0,1.1,0.9,2,2,2
	c1.1,0,2-0.9,2-2V26h20c1.1,0,2-0.9,2-2C48,22.9,47.1,22,46,22z"/>
</svg>
