<?xml version="1.0" encoding="utf-8"?>
<!-- Generator: Adobe Illustrator 17.1.0, SVG Export Plug-In . SVG Version: 6.00 Build 0)  -->
<!DOCTYPE svg PUBLIC "-//W3C//DTD SVG 1.1//EN" "http://www.w3.org/Graphics/SVG/1.1/DTD/svg11.dtd">
<svg version="1.1" id="Layer_1" xmlns="http://www.w3.org/2000/svg" xmlns:xlink="http://www.w3.org/1999/xlink" x="0px" y="0px"
	 viewBox="0 0 48 48" enable-background="new 0 0 48 48" xml:space="preserve">
<path d="M41,38.1L26.8,24L41,9.9c0.8-0.8,0.8-2.1,0-2.8s-2.1-0.8-2.8,0L24,21.2L9.9,7C9.1,6.3,7.8,6.3,7,7S6.3,9.1,7,9.9L21.2,24
	L7,38.1c-0.8,0.8-0.8,2.1,0,2.8s2.1,0.8,2.8,0L24,26.8L38.1,41c0.8,0.8,2.1,0.8,2.8,0S41.7,38.9,41,38.1z"/>
</svg>
