<?xml version="1.0" encoding="utf-8"?>
<!-- Generator: Adobe Illustrator 17.1.0, SVG Export Plug-In . SVG Version: 6.00 Build 0)  -->
<!DOCTYPE svg PUBLIC "-//W3C//DTD SVG 1.1//EN" "http://www.w3.org/Graphics/SVG/1.1/DTD/svg11.dtd">
<svg version="1.1" id="Layer_1" xmlns="http://www.w3.org/2000/svg" xmlns:xlink="http://www.w3.org/1999/xlink" x="0px" y="0px"
	 viewBox="0 0 48 48" enable-background="new 0 0 48 48" xml:space="preserve">
<path fill="#353535" d="M47.3,40.4l-0.3-0.3l0,0L35.5,28.6c1.6-2.8,2.5-6,2.6-9.4C38.1,8.6,29.7,0.1,19.1,0c0,0-0.1,0-0.1,0
	C8.6,0,0.1,8.4,0,18.9C-0.1,29.4,8.4,38,18.9,38c0,0,0.1,0,0.1,0c3.5,0,6.8-0.9,9.6-2.6L40.2,47l0,0l0.3,0.3c0.9,0.9,2.3,0.9,3.2,0
	l3.7-3.7C48.2,42.7,48.2,41.3,47.3,40.4z M29,29.1c-2.7,2.7-6.2,4.1-10,4.1h-0.1c-7.8,0-14.1-6.4-14.1-14.3
	c0-7.8,6.4-14.1,14.2-14.1h0.1c3.8,0,7.3,1.5,10,4.2c2.7,2.7,4.1,6.3,4.1,10C33.2,22.9,31.7,26.4,29,29.1z"/>
</svg>
