<?xml version="1.0" encoding="utf-8"?>
<!-- Generator: Adobe Illustrator 16.0.4, SVG Export Plug-In . SVG Version: 6.00 Build 0)  -->
<!DOCTYPE svg PUBLIC "-//W3C//DTD SVG 1.1//EN" "http://www.w3.org/Graphics/SVG/1.1/DTD/svg11.dtd">
<svg version="1.1" id="Layer_1" xmlns="http://www.w3.org/2000/svg" xmlns:xlink="http://www.w3.org/1999/xlink" x="0px" y="0px"
	 width="48px" height="48px" viewBox="0 0 48 48" enable-background="new 0 0 48 48" xml:space="preserve">
<path d="M47.038,40H1.066c-0.531,0-0.961-0.447-0.961-1s0.43-1,0.961-1h45.972C47.57,38,48,38.447,48,39S47.57,40,47.038,40z"/>
<path d="M47.038,40H1.066c-0.531,0-0.961-0.447-0.961-1s0.43-1,0.961-1h45.972C47.57,38,48,38.447,48,39S47.57,40,47.038,40z"/>
<path d="M47.038,32.5H1.066c-0.531,0-0.961-0.447-0.961-1s0.43-1,0.961-1h45.972c0.532,0,0.962,0.447,0.962,1
	S47.57,32.5,47.038,32.5z"/>
<path d="M47.135,25H23.364c-0.477,0-0.864-0.447-0.864-1s0.387-1,0.864-1h23.771C47.613,23,48,23.447,48,24S47.613,25,47.135,25z"/>
<path d="M47.135,17.5H23.364c-0.477,0-0.864-0.448-0.864-1s0.387-1,0.864-1h23.771c0.479,0,0.865,0.448,0.865,1
	S47.613,17.5,47.135,17.5z"/>
<path d="M47.135,10H23.364C22.887,10,22.5,9.552,22.5,9s0.387-1,0.864-1h23.771C47.613,8,48,8.448,48,9S47.613,10,47.135,10z"/>
<path d="M15,25H2c-1.103,0-2-0.897-2-2V10c0-1.103,0.897-2,2-2h13c1.103,0,2,0.897,2,2v13C17,24.103,16.103,25,15,25z M15,23v1V23
	L15,23L15,23z M2,10v13h12.997L15,10H2z"/>
</svg>
