<?xml version="1.0" encoding="utf-8"?>
<!-- Generator: Adobe Illustrator 17.1.0, SVG Export Plug-In . SVG Version: 6.00 Build 0)  -->
<!DOCTYPE svg PUBLIC "-//W3C//DTD SVG 1.1//EN" "http://www.w3.org/Graphics/SVG/1.1/DTD/svg11.dtd">
<svg version="1.1" id="Layer_1" xmlns="http://www.w3.org/2000/svg" xmlns:xlink="http://www.w3.org/1999/xlink" x="0px" y="0px"
	 width="80px" height="80px" viewBox="0 0 80 80" enable-background="new 0 0 80 80" xml:space="preserve">
<g>
	<path fill="#FDC129" d="M40,8.016c17.636,0,31.984,14.348,31.984,31.984c0,17.636-14.348,31.984-31.984,31.984
		C22.364,71.984,8.016,57.636,8.016,40C8.016,22.364,22.364,8.016,40,8.016 M40,0C17.909,0,0,17.909,0,40c0,22.092,17.909,40,40,40
		c22.091,0,40-17.909,40-40C80,17.909,62.091,0,40,0L40,0z"/>
</g>
<path d="M27.63,36.062c4.619,13.04,15.584,15.676,17.265,15.801c4.029,0.426,6.622-2.098,7.129-5.92c0,0-4.076-2.592-6.109-3.018
	L42.7,46.14c0,0-1.73,0.076-5.516-3.712c-3.788-3.787-3.712-5.517-3.712-5.517l2.766-2.766c-0.461-2.804-2.085-7.237-5.258-6.213
	C27.852,28.916,26.696,33.326,27.63,36.062z"/>
</svg>
