<?xml version="1.0" encoding="utf-8"?>
<!-- Generator: Adobe Illustrator 17.1.0, SVG Export Plug-In . SVG Version: 6.00 Build 0)  -->
<!DOCTYPE svg PUBLIC "-//W3C//DTD SVG 1.1//EN" "http://www.w3.org/Graphics/SVG/1.1/DTD/svg11.dtd">
<svg version="1.1" id="Layer_1" xmlns="http://www.w3.org/2000/svg" xmlns:xlink="http://www.w3.org/1999/xlink" x="0px" y="0px"
	 width="80px" height="80px" viewBox="0 0 80 80" enable-background="new 0 0 80 80" xml:space="preserve">
<g>
	<circle fill="#FDC129" cx="39.939" cy="40.113" r="39.886"/>
</g>
<g>
	<path d="M43.442,53.05c0,1.059-0.382,1.956-1.147,2.692c-0.766,0.734-1.707,1.102-2.824,1.102c-1.119,0-2.059-0.368-2.824-1.102
		c-0.765-0.735-1.147-1.633-1.147-2.692c0-1.088,0.382-2,1.147-2.736c0.765-0.734,1.706-1.102,2.824-1.102
		c1.118,0,2.059,0.368,2.824,1.102C43.059,51.05,43.442,51.962,43.442,53.05z M42.515,47.446h-5.87l-1.058-22.991h7.899
		L42.515,47.446z"/>
</g>
</svg>
