<?xml version="1.0" encoding="utf-8"?>
<!-- Generator: Adobe Illustrator 17.1.0, SVG Export Plug-In . SVG Version: 6.00 Build 0)  -->
<!DOCTYPE svg PUBLIC "-//W3C//DTD SVG 1.1//EN" "http://www.w3.org/Graphics/SVG/1.1/DTD/svg11.dtd">
<svg version="1.1" id="Layer_1" xmlns="http://www.w3.org/2000/svg" xmlns:xlink="http://www.w3.org/1999/xlink" x="0px" y="0px"
	 width="200px" height="50px" viewBox="0 0 200 50" enable-background="new 0 0 200 50" xml:space="preserve">
<g>
	<path fill="#FFFFFF" d="M74.9,49.8c-13.7,0-24.8-11.1-24.8-24.8c0-13.6,11.1-24.8,24.8-24.8c13.6,0,24.7,11.1,24.7,24.8
		C99.7,38.7,88.6,49.8,74.9,49.8"/>
</g>
<g>
	<path fill="#FFFFFF" d="M174.8,49.8C161.1,49.8,150,38.7,150,25c0-13.6,11.1-24.8,24.8-24.8c13.6,0,24.7,11.1,24.7,24.8
		C199.6,38.7,188.5,49.8,174.8,49.8"/>
</g>
<g>
	<path fill="#C62032" d="M25,50C11.2,50,0,38.8,0,25S11.2,0,25,0s25,11.2,25,25S38.8,50,25,50"/>
</g>
<g>
	<path fill="#C62032" d="M125,50c-13.8,0-25-11.2-25-25s11.2-25,25-25s25,11.2,25,25S138.8,50,125,50"/>
</g>
<g>
	<rect x="115.8" y="14.4" fill="#FFFFFF" width="6" height="21.1"/>
	<rect x="127.7" y="14.4" fill="#FFFFFF" width="6" height="21.1"/>
</g>
<g>
	<path fill="#C62032" d="M174.8,45.3c-11.2,0-20.3-9.1-20.3-20.2c0-11.2,9.1-20.3,20.3-20.3S195,13.9,195,25.1
		C195.1,36.2,186,45.3,174.8,45.3"/>
</g>
<g>
	<rect x="165.8" y="14.4" fill="#FFFFFF" width="6" height="21.1"/>
	<rect x="177.8" y="14.4" fill="#FFFFFF" width="6" height="21.1"/>
</g>
<polygon fill="#FFFFFF" points="18.7,35.5 18.7,14.5 36.7,25.1 "/>
<g>
	<g>
		<path fill="#C62032" d="M74.9,45.3c-11.2,0-20.3-9.1-20.3-20.2c0-11.2,9.1-20.3,20.3-20.3s20.2,9.1,20.2,20.3
			C95.2,36.2,86.1,45.3,74.9,45.3"/>
	</g>
	<polygon fill="#FFFFFF" points="68.9,35.6 68.9,14.6 86.8,25.2 	"/>
</g>
<g>
	<path fill="#C62032" d="M74.9,2c12.7,0,23,10.3,23,23s-10.3,23-23,23s-23-10.3-23-23S62.3,2,74.9,2 M74.9,0c-13.8,0-25,11.2-25,25
		s11.2,25,25,25s25-11.2,25-25S88.7,0,74.9,0L74.9,0z"/>
</g>
<g>
	<path fill="#C62032" d="M174.8,2c12.7,0,23,10.3,23,23s-10.3,23-23,23s-23-10.3-23-23S162.2,2,174.8,2 M174.8,0
		c-13.8,0-25,11.2-25,25s11.2,25,25,25s25-11.2,25-25S188.6,0,174.8,0L174.8,0z"/>
</g>
</svg>
