<?xml version="1.0" encoding="utf-8"?>
<!-- Generator: Adobe Illustrator 17.1.0, SVG Export Plug-In . SVG Version: 6.00 Build 0)  -->
<!DOCTYPE svg PUBLIC "-//W3C//DTD SVG 1.1//EN" "http://www.w3.org/Graphics/SVG/1.1/DTD/svg11.dtd">
<svg version="1.1" id="Layer_1" xmlns="http://www.w3.org/2000/svg" xmlns:xlink="http://www.w3.org/1999/xlink" x="0px" y="0px"
	 width="120px" height="30px" viewBox="0 0 120 30" enable-background="new 0 0 120 30" xml:space="preserve">
<g>
	<circle fill="#C60C30" cx="15" cy="15" r="15"/>
</g>
<g>
	<circle fill="#C60C30" cx="45" cy="15" r="15"/>
</g>
<g>
	<circle fill="#C60C30" cx="75" cy="15" r="15"/>
</g>
<g>
	<circle fill="#C60C30" cx="105" cy="15" r="15"/>
</g>
<polygon fill="#FFFFFF" points="23.6,21.2 6.4,21.2 6.4,10.9 15,17 23.6,10.9 "/>
<polygon fill="#FFFFFF" points="15,14.6 6.4,8.5 23.6,8.5 "/>
<path fill="#FFFFFF" d="M49.3,8.7h-1.9c-0.7,0-0.9,0.4-0.9,0.9v1.8h2.8l-0.4,3.2h-2.5v9h-3.8v-8.9h-1.9v-3.2h1.9V9.7
	c0-2.2,0.7-3.9,3.8-4h2.8L49.3,8.7L49.3,8.7z"/>
<path fill="#FFFFFF" d="M111.5,14.8c-3.7-2.4-7.4-5-9.4-6.1c0,3.3,0,9.4,0,12.4C105,19.4,109.3,16.3,111.5,14.8L111.5,14.8z"/>
<g id="Icon">
	<path fill="#FFFFFF" d="M84.4,9.2c-0.7,0.3-1.4,0.5-2.2,0.6c0.8-0.5,1.4-1.2,1.7-2.1c-0.7,0.4-1.6,0.8-2.4,0.9
		c-0.7-0.7-1.7-1.2-2.8-1.2c-2.1,0-3.8,1.7-3.8,3.8c0,0.3,0,0.6,0.1,0.9c-3.2-0.2-6-1.7-7.9-4c-0.3,0.6-0.5,1.2-0.5,1.9
		c0,1.3,0.7,2.5,1.7,3.2c-0.6,0-1.2-0.2-1.7-0.5l0,0c0,1.9,1.3,3.4,3.1,3.8c-0.3,0.1-0.7,0.1-1,0.1c-0.2,0-0.5,0-0.7-0.1
		c0.5,1.5,1.9,2.6,3.6,2.7c-1.3,1-3,1.6-4.8,1.6c-0.3,0-0.6,0-0.9-0.1c1.7,1.1,3.7,1.7,5.9,1.7c7.1,0,10.9-5.8,10.9-10.9
		c0-0.2,0-0.3,0-0.5C83.2,10.6,83.8,10,84.4,9.2z"/>
</g>
</svg>
