<?xml version="1.0" encoding="utf-8"?>
<!-- Generator: Adobe Illustrator 17.1.0, SVG Export Plug-In . SVG Version: 6.00 Build 0)  -->
<!DOCTYPE svg PUBLIC "-//W3C//DTD SVG 1.1//EN" "http://www.w3.org/Graphics/SVG/1.1/DTD/svg11.dtd">
<svg version="1.1" id="Layer_1" xmlns="http://www.w3.org/2000/svg" xmlns:xlink="http://www.w3.org/1999/xlink" x="0px" y="0px"
	 width="300.402px" height="58.555px" viewBox="0 0 300.402 58.555" enable-background="new 0 0 300.402 58.555"
	 xml:space="preserve">
<g>
	<g>
		<path fill="#F19520" d="M52.975,56.684c-2.572-0.781-6.844-1.692-11.785-2.744c-7.422-1.586-15.83-3.377-22.186-5.48
			C9.646,45.373,3.928,40.883,1.996,35.117c-2.305-6.875,1.672-12.914,2.131-13.584C11.76,10.525,28.418,3.416,52.309,0.967
			C61.74,0,68.734,0,71.721,0c1.527,0,2.762,1.119,2.762,2.494c0,0.287-0.059,0.574-0.174,0.855l-4.15,10.709
			c-0.207,0.585-0.875,1.621-2.053,1.621c-1.146-0.064-1.494-0.461-1.84-0.978c-0.176-0.258-0.346-0.508-0.789-0.779
			c-1.824-1.135-5.184-1.705-9.988-1.705c-2.344,0-5.064,0.137-8.09,0.404C30.973,14.443,11.791,20.85,11.824,32.9
			c0.262,3.879,3.029,6.223,5.701,7.996c5.361,3.562,18.264,6.881,27.682,9.301c3.83,0.984,7.139,1.834,9.402,2.545
			c1.904,0.605,3.557,1.368,4.426,2.029c1.922,1.477,1.941,3.266,1.904,3.783L52.975,56.684z"/>
		<path fill="#F19520" d="M47.746,42.496c-6.191,0-11.223-5.037-11.223-11.229c0-6.185,5.031-11.217,11.223-11.217
			c6.186,0,11.219,5.031,11.219,11.217C58.965,37.459,53.932,42.496,47.746,42.496"/>
		<polygon fill="#010101" points="94.738,31.279 91.498,31.279 86.066,22.5 85.863,22.121 85.965,22.91 85.965,31.295 
			82.881,31.295 82.881,18.248 86.902,18.248 91.57,25.568 91.863,26.066 91.664,25.172 91.66,18.248 94.738,18.279 		"/>
		<path fill="#010101" d="M107.797,26.371c0,1.615-0.475,2.889-1.414,3.822c-0.941,0.93-2.264,1.393-3.969,1.393
			c-1.711,0-3.031-0.463-3.973-1.393c-0.936-0.934-1.414-2.207-1.414-3.822c0-1.631,0.479-2.908,1.426-3.838
			c0.945-0.924,2.266-1.39,3.961-1.39c1.713,0,3.039,0.468,3.977,1.404C107.328,23.477,107.797,24.754,107.797,26.371
			 M103.918,28.764c0.203-0.258,0.355-0.557,0.459-0.912c0.102-0.351,0.156-0.841,0.156-1.463c0-0.58-0.059-1.068-0.164-1.455
			c-0.106-0.393-0.248-0.704-0.434-0.938c-0.188-0.236-0.414-0.404-0.676-0.506c-0.262-0.098-0.543-0.15-0.846-0.15
			c-0.307,0-0.576,0.043-0.809,0.123c-0.242,0.082-0.465,0.246-0.684,0.49c-0.191,0.234-0.346,0.541-0.459,0.938
			c-0.113,0.398-0.168,0.898-0.168,1.498c0,0.543,0.051,1.002,0.146,1.391c0.1,0.396,0.246,0.713,0.438,0.951
			c0.186,0.231,0.41,0.397,0.674,0.503c0.26,0.103,0.549,0.158,0.883,0.158c0.287,0,0.562-0.048,0.822-0.143
			C103.518,29.15,103.736,28.984,103.918,28.764"/>
		<path fill="#010101" d="M128.193,30.154c0,0.92-0.133,1.695-0.387,2.328c-0.27,0.631-0.639,1.123-1.113,1.477
			c-0.469,0.365-1.041,0.623-1.707,0.789c-0.66,0.156-1.426,0.238-2.262,0.238c-0.685,0-1.357-0.043-2.021-0.123
			c-0.662-0.08-1.234-0.178-1.717-0.295v-2.463h0.381c0.389,0.155,0.857,0.289,1.408,0.414c0.557,0.127,1.049,0.189,1.49,0.189
			c0.582,0,1.053-0.055,1.414-0.158c0.367-0.113,0.646-0.264,0.84-0.465c0.18-0.186,0.311-0.426,0.395-0.715
			c0.08-0.297,0.119-0.646,0.119-1.051v-0.19c-0.373,0.316-0.797,0.559-1.26,0.734c-0.457,0.186-0.969,0.273-1.539,0.273
			c-1.371,0-2.43-0.414-3.178-1.242c-0.748-0.826-1.121-2.088-1.121-3.779c0-0.814,0.113-1.514,0.344-2.101
			c0.223-0.588,0.545-1.105,0.953-1.541c0.395-0.409,0.867-0.731,1.428-0.952c0.557-0.228,1.137-0.344,1.727-0.344
			c0.527,0,1.012,0.062,1.447,0.19c0.434,0.123,0.83,0.297,1.188,0.519l0.105-0.434h3.066V30.154z M125.033,28.182v-4.455
			c-0.18-0.072-0.4-0.131-0.664-0.182c-0.264-0.041-0.492-0.062-0.707-0.062c-0.826,0-1.445,0.234-1.857,0.717
			c-0.42,0.471-0.625,1.137-0.625,1.988c0,0.941,0.178,1.601,0.535,1.975c0.352,0.375,0.871,0.562,1.564,0.562
			c0.312,0,0.619-0.049,0.926-0.148C124.51,28.479,124.787,28.342,125.033,28.182"/>
		<path fill="#010101" d="M140.76,26.949h-7.211c0.043,0.768,0.34,1.361,0.879,1.768c0.537,0.408,1.332,0.609,2.389,0.609
			c0.662,0,1.309-0.115,1.932-0.361c0.623-0.235,1.117-0.492,1.48-0.764h0.35v2.527c-0.713,0.285-1.387,0.496-2.014,0.623
			c-0.633,0.129-1.328,0.191-2.098,0.191c-1.971,0-3.48-0.443-4.531-1.332c-1.051-0.891-1.572-2.149-1.572-3.793
			c0-1.617,0.494-2.902,1.488-3.851c0.994-0.949,2.361-1.423,4.094-1.423c1.6,0,2.803,0.402,3.607,1.212
			c0.807,0.815,1.207,1.971,1.207,3.488V26.949z M137.625,25.1c-0.016-0.66-0.182-1.152-0.49-1.49
			c-0.307-0.33-0.793-0.494-1.443-0.494c-0.604,0-1.105,0.158-1.494,0.471c-0.395,0.316-0.613,0.818-0.66,1.514H137.625z"/>
		<path fill="#010101" d="M152.096,28.162c0,1.021-0.461,1.838-1.367,2.455c-0.908,0.627-2.152,0.932-3.736,0.932
			c-0.877,0-1.674-0.078-2.387-0.244c-0.705-0.166-1.283-0.34-1.717-0.543v-2.586h0.289c0.16,0.107,0.344,0.23,0.549,0.361
			c0.211,0.131,0.498,0.275,0.879,0.424c0.326,0.137,0.701,0.25,1.113,0.348c0.416,0.1,0.859,0.145,1.33,0.145
			c0.615,0,1.078-0.068,1.383-0.205c0.289-0.139,0.439-0.342,0.439-0.611c0-0.24-0.088-0.41-0.27-0.52
			c-0.17-0.107-0.5-0.208-0.992-0.309c-0.232-0.057-0.551-0.111-0.951-0.176c-0.4-0.059-0.764-0.135-1.086-0.219
			c-0.893-0.23-1.559-0.601-1.99-1.092c-0.43-0.488-0.646-1.111-0.646-1.842c0-0.947,0.447-1.736,1.346-2.359
			c0.895-0.628,2.117-0.943,3.674-0.943c0.73,0,1.434,0.072,2.111,0.221c0.672,0.148,1.203,0.307,1.582,0.481v2.486h-0.273
			c-0.471-0.32-1.002-0.582-1.6-0.785c-0.598-0.197-1.199-0.301-1.816-0.301c-0.508,0-0.932,0.066-1.287,0.211
			c-0.344,0.141-0.514,0.336-0.514,0.598c0,0.233,0.078,0.41,0.232,0.533c0.16,0.119,0.527,0.24,1.111,0.369
			c0.326,0.061,0.668,0.127,1.043,0.18c0.369,0.068,0.738,0.144,1.117,0.236c0.82,0.219,1.441,0.555,1.836,1.02
			C151.895,26.895,152.096,27.469,152.096,28.162"/>
		<rect x="173.967" y="17.66" fill="#010101" width="3.164" height="13.619"/>
		<path fill="#010101" d="M183.336,20.053h-3.33V17.66h3.33V20.053z M183.258,31.279h-3.164v-9.824h3.164V31.279z"/>
		<path fill="#010101" d="M208.553,31.279h-3.16v-1.021c-0.541,0.443-1.051,0.765-1.521,0.982c-0.473,0.207-1.018,0.309-1.639,0.309
			c-1.195,0-2.145-0.455-2.865-1.381c-0.715-0.92-1.08-2.164-1.08-3.725c0-0.842,0.127-1.576,0.373-2.223
			c0.238-0.646,0.566-1.199,0.988-1.654c0.4-0.441,0.875-0.781,1.441-1.024c0.562-0.24,1.135-0.365,1.701-0.365
			c0.584,0,1.064,0.064,1.438,0.191c0.383,0.123,0.768,0.281,1.164,0.475V17.66h3.16V31.279z M205.393,28.577v-4.829
			c-0.225-0.094-0.453-0.164-0.703-0.203c-0.242-0.041-0.461-0.062-0.668-0.062c-0.826,0-1.445,0.26-1.863,0.773
			c-0.408,0.518-0.615,1.237-0.615,2.158c0,0.961,0.166,1.658,0.492,2.092c0.334,0.438,0.865,0.654,1.6,0.654
			c0.281,0,0.594-0.051,0.91-0.164C204.865,28.895,205.146,28.752,205.393,28.577"/>
		<path fill="#010101" d="M221.209,26.949h-7.213c0.045,0.768,0.34,1.361,0.879,1.768c0.541,0.408,1.338,0.609,2.383,0.609
			c0.668,0,1.314-0.115,1.941-0.361c0.625-0.235,1.113-0.492,1.473-0.764h0.361v2.527c-0.721,0.285-1.389,0.496-2.021,0.623
			c-0.629,0.129-1.328,0.191-2.098,0.191c-1.967,0-3.479-0.443-4.529-1.332c-1.051-0.891-1.578-2.149-1.578-3.793
			c0-1.617,0.502-2.902,1.494-3.851c0.994-0.949,2.359-1.423,4.096-1.423c1.596,0,2.803,0.402,3.607,1.212
			c0.801,0.815,1.205,1.971,1.205,3.488V26.949z M218.07,25.1c-0.012-0.66-0.176-1.152-0.482-1.49
			c-0.312-0.33-0.791-0.494-1.445-0.494c-0.607,0-1.104,0.158-1.494,0.471c-0.393,0.316-0.611,0.818-0.66,1.514H218.07z"/>
		<path fill="#010101" d="M241.051,26.371c0,1.615-0.467,2.889-1.416,3.822c-0.936,0.93-2.264,1.393-3.969,1.393
			c-1.699,0-3.02-0.463-3.969-1.393c-0.939-0.934-1.414-2.207-1.414-3.822c0-1.631,0.475-2.908,1.426-3.838
			c0.943-0.924,2.266-1.39,3.957-1.39c1.719,0,3.045,0.468,3.982,1.404C240.584,23.477,241.051,24.754,241.051,26.371
			 M237.174,28.764c0.207-0.258,0.355-0.557,0.461-0.912c0.102-0.351,0.154-0.841,0.154-1.463c0-0.58-0.057-1.068-0.158-1.455
			c-0.105-0.393-0.25-0.704-0.439-0.938c-0.189-0.236-0.414-0.404-0.672-0.506c-0.264-0.098-0.545-0.15-0.854-0.15
			c-0.299,0-0.57,0.043-0.805,0.123c-0.236,0.082-0.465,0.246-0.68,0.49c-0.199,0.234-0.348,0.541-0.457,0.938
			c-0.119,0.398-0.172,0.898-0.172,1.498c0,0.543,0.049,1.002,0.145,1.391c0.102,0.396,0.246,0.713,0.439,0.951
			c0.186,0.231,0.408,0.397,0.674,0.503c0.258,0.103,0.553,0.158,0.883,0.158c0.289,0,0.562-0.048,0.822-0.143
			C236.773,29.15,236.988,28.984,237.174,28.764"/>
		<path fill="#010101" d="M262.477,26.232c0,1.543-0.426,2.803-1.273,3.778c-0.861,0.978-1.924,1.462-3.199,1.462
			c-0.545,0-1.029-0.061-1.441-0.176c-0.414-0.113-0.809-0.285-1.178-0.508l-0.133,0.49h-3.031V17.66h3.164v4.815
			c0.479-0.383,0.977-0.696,1.477-0.938c0.51-0.236,1.088-0.358,1.75-0.358c1.242,0,2.195,0.447,2.863,1.344
			C262.148,23.422,262.477,24.656,262.477,26.232 M259.234,26.295c0-0.871-0.148-1.547-0.447-2.022
			c-0.295-0.465-0.822-0.705-1.592-0.705c-0.297,0-0.598,0.041-0.91,0.137c-0.316,0.088-0.619,0.219-0.9,0.391v4.932
			c0.219,0.074,0.436,0.131,0.646,0.158c0.197,0.035,0.447,0.047,0.732,0.047c0.832,0,1.451-0.246,1.859-0.732
			C259.033,28.01,259.234,27.277,259.234,26.295"/>
		<path fill="#010101" d="M299.857,31.279h-3.16v-1.021c-0.541,0.443-1.049,0.765-1.52,0.982c-0.475,0.207-1.016,0.309-1.635,0.309
			c-1.195,0-2.154-0.455-2.869-1.381c-0.717-0.92-1.074-2.164-1.074-3.725c0-0.842,0.115-1.576,0.361-2.223
			c0.246-0.646,0.576-1.199,0.992-1.654c0.396-0.441,0.879-0.781,1.441-1.024c0.562-0.24,1.135-0.365,1.697-0.365
			c0.59,0,1.076,0.064,1.445,0.191c0.373,0.123,0.766,0.281,1.16,0.475V17.66h3.16V31.279z M296.697,28.577v-4.829
			c-0.219-0.094-0.457-0.164-0.699-0.203c-0.246-0.041-0.473-0.062-0.672-0.062c-0.826,0-1.449,0.26-1.857,0.773
			c-0.418,0.518-0.621,1.237-0.621,2.158c0,0.961,0.164,1.658,0.492,2.092c0.33,0.438,0.865,0.654,1.604,0.654
			c0.281,0,0.582-0.051,0.906-0.164C296.17,28.895,296.451,28.752,296.697,28.577"/>
		<path fill="#010101" d="M195.201,22.109c-0.602-0.617-1.428-0.932-2.486-0.932c-0.633,0-1.205,0.121-1.719,0.352
			c-0.523,0.23-1.059,0.57-1.617,1.004v-1.078l-1.607-0.002c-0.709,0-1.553,0.609-1.553,1.588v8.238h3.16v-6.967
			c0.348-0.207,0.664-0.355,0.963-0.443c0.295-0.092,0.584-0.143,0.869-0.143c0.4,0,0.721,0.053,0.938,0.15
			c0.232,0.102,0.398,0.256,0.514,0.475c0.102,0.184,0.166,0.473,0.211,0.865c0.039,0.396,0.061,0.789,0.061,1.189v4.873h3.16
			v-6.399C196.094,23.654,195.795,22.725,195.201,22.109"/>
		<path fill="#010101" d="M286.508,22.109c-0.6-0.617-1.426-0.932-2.488-0.932c-0.629,0-1.199,0.121-1.713,0.352
			c-0.523,0.23-1.061,0.57-1.619,1.004v-1.078l-1.607-0.002c-0.707,0-1.551,0.609-1.551,1.588v8.238h3.158v-6.967
			c0.348-0.207,0.664-0.355,0.963-0.443c0.295-0.092,0.586-0.143,0.867-0.143c0.402,0,0.719,0.053,0.939,0.15
			c0.229,0.102,0.396,0.256,0.514,0.475c0.102,0.184,0.168,0.473,0.207,0.865c0.045,0.396,0.061,0.789,0.061,1.189v4.873h3.16
			v-6.399C287.398,23.654,287.105,22.725,286.508,22.109"/>
		<path fill="#010101" d="M170.891,25.192c-0.5-0.536-1.178-0.883-2.025-1.057v-0.066c0.602-0.266,1.08-0.645,1.41-1.127
			c0.33-0.483,0.498-1.037,0.498-1.67c0-0.539-0.119-1.021-0.365-1.447c-0.242-0.422-0.607-0.76-1.107-1.004
			c-0.48-0.244-0.959-0.394-1.451-0.469c-0.482-0.068-1.252-0.101-2.303-0.101h-3.477c-0.848,0-1.533,0.662-1.586,1.496v11.533
			h5.695c0.945,0,1.723-0.082,2.344-0.24c0.609-0.166,1.176-0.441,1.688-0.826c0.447-0.324,0.795-0.74,1.045-1.232
			c0.26-0.496,0.383-1.059,0.383-1.688C171.639,26.418,171.389,25.723,170.891,25.192 M163.834,20.639h0.311
			c0.656,0,1.174,0.004,1.539,0.007c0.361,0.01,0.668,0.063,0.914,0.161c0.273,0.105,0.465,0.262,0.572,0.479
			c0.113,0.215,0.162,0.432,0.162,0.648c0,0.281-0.049,0.525-0.137,0.734c-0.098,0.221-0.295,0.391-0.598,0.524
			c-0.215,0.097-0.514,0.154-0.887,0.175c-0.369,0.018-0.822,0.027-1.355,0.027h-0.521V20.639z M167.951,28.072
			c-0.137,0.244-0.373,0.434-0.721,0.578c-0.342,0.152-0.725,0.225-1.129,0.234c-0.404,0.006-1.082,0.006-2.027,0.006h-0.24v-3.246
			h0.729c0.502,0,0.98,0,1.441,0.008c0.463,0.006,0.826,0.047,1.086,0.125c0.383,0.109,0.66,0.279,0.812,0.5
			c0.162,0.227,0.242,0.543,0.242,0.959C168.145,27.555,168.084,27.828,167.951,28.072"/>
		<path fill="#010101" d="M116.48,21.426c-0.135-0.006-0.264-0.012-0.373-0.012c-0.428,0-0.904,0.098-1.414,0.289
			c-0.512,0.201-1.113,0.598-1.811,1.191v-1.44h-1.607c-0.859,0.024-1.549,0.727-1.549,1.592l0,0v8.233h3.156v-6.582
			c0.398-0.137,0.768-0.238,1.111-0.293c0.342-0.061,0.742-0.092,1.189-0.092c0.195,0,0.445,0.012,0.74,0.039
			c0.297,0.024,0.514,0.053,0.645,0.1h0.281v-2.996C116.744,21.441,116.625,21.432,116.48,21.426"/>
		<path fill="#010101" d="M229,17.625c-0.373-0.039-0.801-0.053-1.266-0.053c-1.293,0-2.264,0.305-2.904,0.903
			c-0.643,0.602-0.953,1.5-0.953,2.703v0.277h-1.35v2.131h1.35v7.691h1.555c0.883,0,1.604-0.715,1.604-1.598v-6.094h2.32v-2.131
			h-2.426v-0.084c0-0.631,0.109-1.066,0.33-1.283c0.211-0.225,0.633-0.334,1.252-0.334c0.256,0,0.492,0.023,0.717,0.076
			c0.225,0.057,0.404,0.098,0.545,0.141h0.238V17.75C229.721,17.692,229.383,17.652,229,17.625"/>
		<path fill="#010101" d="M272.959,31.279c0.879,0,1.586-0.715,1.594-1.592v-8.233h-3.164v6.963
			c-0.297,0.193-0.613,0.338-0.947,0.44c-0.322,0.098-0.615,0.146-0.889,0.146c-0.404,0-0.711-0.049-0.939-0.146
			c-0.225-0.102-0.393-0.26-0.502-0.473c-0.119-0.213-0.193-0.49-0.225-0.82c-0.029-0.33-0.053-0.746-0.053-1.242v-4.867h-3.154
			v6.395c0,1.219,0.293,2.143,0.873,2.764c0.59,0.627,1.424,0.938,2.516,0.938c0.662,0,1.242-0.113,1.723-0.342
			c0.486-0.232,1.018-0.572,1.598-1.014v1.084H272.959z"/>
		<path fill="#010101" d="M250.072,21.422c-0.137-0.006-0.264-0.012-0.373-0.012c-0.432,0-0.906,0.098-1.416,0.289
			c-0.514,0.201-1.111,0.596-1.811,1.191v-1.44h-1.607c-0.857,0.024-1.547,0.723-1.547,1.59h-0.006v8.232h3.16v-6.581
			c0.4-0.137,0.77-0.237,1.111-0.294c0.344-0.059,0.744-0.092,1.188-0.092c0.197,0,0.447,0.016,0.742,0.039
			c0.299,0.023,0.514,0.055,0.646,0.102h0.281v-2.996C250.336,21.436,250.213,21.426,250.072,21.422"/>
		<path fill="#010101" d="M90.617,45.516c0,0.406-0.096,0.809-0.287,1.205c-0.191,0.4-0.453,0.734-0.793,1.01
			c-0.373,0.301-0.807,0.531-1.305,0.699c-0.496,0.17-1.096,0.254-1.799,0.254c-0.748,0-1.426-0.068-2.025-0.213
			c-0.601-0.139-1.205-0.35-1.832-0.623V46.11h0.1c0.529,0.443,1.137,0.777,1.83,1.017c0.689,0.238,1.34,0.355,1.949,0.355
			c0.854,0,1.519-0.16,2-0.479c0.479-0.324,0.719-0.754,0.719-1.291c0-0.461-0.111-0.803-0.34-1.027
			c-0.223-0.217-0.57-0.389-1.033-0.506c-0.35-0.094-0.729-0.169-1.135-0.23c-0.41-0.062-0.842-0.141-1.303-0.238
			c-0.922-0.193-1.609-0.527-2.053-0.998c-0.447-0.471-0.67-1.09-0.67-1.855c0-0.871,0.371-1.594,1.107-2.148
			c0.738-0.553,1.674-0.832,2.807-0.832c0.732,0,1.402,0.068,2.016,0.209c0.613,0.139,1.156,0.316,1.629,0.516v1.641h-0.1
			c-0.394-0.338-0.916-0.623-1.564-0.834c-0.648-0.225-1.312-0.334-1.986-0.334c-0.744,0-1.34,0.152-1.791,0.461
			c-0.449,0.309-0.674,0.707-0.674,1.191c0,0.432,0.113,0.775,0.334,1.023c0.227,0.242,0.621,0.434,1.184,0.566
			c0.303,0.064,0.729,0.146,1.275,0.234c0.551,0.098,1.021,0.193,1.404,0.291c0.77,0.209,1.352,0.518,1.748,0.932
			C90.416,44.189,90.617,44.766,90.617,45.516"/>
		<polygon fill="#010101" points="100.283,40.666 95.721,51.379 94.309,51.379 95.77,48.113 92.654,40.666 94.08,40.666 
			96.482,46.469 98.904,40.666 		"/>
		<path fill="#010101" d="M102.496,41.309h0.002c0-0.35,0.277-0.633,0.627-0.643h0.688v0.873c0.412-0.342,0.834-0.609,1.27-0.801
			c0.443-0.188,0.889-0.283,1.359-0.283c0.842,0,1.484,0.256,1.928,0.76c0.445,0.512,0.668,1.244,0.668,2.205v5.072h-1.312v-4.453
			c0-0.359-0.025-0.693-0.068-1.012c-0.039-0.315-0.119-0.562-0.232-0.742c-0.109-0.195-0.285-0.338-0.502-0.438
			c-0.219-0.094-0.504-0.143-0.854-0.143c-0.363,0-0.734,0.09-1.127,0.268c-0.396,0.176-0.773,0.402-1.129,0.678v5.842h-1.316
			V41.309z"/>
		<path fill="#010101" d="M117.738,46.238c0,0.711-0.293,1.299-0.885,1.758c-0.592,0.455-1.396,0.688-2.416,0.688
			c-0.58,0-1.111-0.068-1.596-0.209c-0.484-0.141-0.889-0.285-1.213-0.449v-1.479h0.066c0.414,0.313,0.879,0.561,1.385,0.746
			c0.508,0.182,1.002,0.279,1.463,0.279c0.58,0,1.037-0.098,1.363-0.281c0.324-0.188,0.486-0.482,0.486-0.887
			c0-0.307-0.082-0.541-0.264-0.699c-0.176-0.158-0.516-0.295-1.02-0.404c-0.188-0.041-0.434-0.092-0.732-0.146
			c-0.301-0.059-0.578-0.125-0.826-0.184c-0.684-0.184-1.172-0.451-1.459-0.805c-0.281-0.35-0.432-0.785-0.432-1.297
			c0-0.322,0.066-0.627,0.197-0.914c0.137-0.281,0.344-0.535,0.613-0.758c0.258-0.221,0.592-0.4,0.992-0.523
			c0.406-0.125,0.855-0.19,1.357-0.19c0.465,0,0.936,0.059,1.422,0.17c0.473,0.111,0.871,0.252,1.191,0.416v1.406h-0.074
			c-0.334-0.246-0.742-0.455-1.225-0.629c-0.484-0.168-0.949-0.256-1.414-0.256c-0.48,0-0.885,0.098-1.219,0.279
			c-0.33,0.182-0.496,0.459-0.496,0.822c0,0.324,0.104,0.568,0.299,0.727c0.197,0.164,0.514,0.299,0.953,0.398
			c0.242,0.062,0.518,0.121,0.812,0.174c0.309,0.055,0.557,0.104,0.756,0.152c0.615,0.137,1.082,0.381,1.414,0.717
			C117.574,45.209,117.738,45.666,117.738,46.238"/>
		<path fill="#010101" d="M121.393,47.85L121.393,47.85c0,0.351-0.279,0.637-0.627,0.644h-0.693V37.596h1.318v3.947
			c0.412-0.346,0.834-0.613,1.277-0.801c0.434-0.191,0.887-0.283,1.35-0.283c0.844,0,1.49,0.25,1.928,0.758
			c0.447,0.51,0.668,1.244,0.668,2.203v5.074h-1.316v-4.455c0-0.357-0.018-0.691-0.062-1.008c-0.039-0.314-0.117-0.566-0.23-0.742
			c-0.115-0.195-0.281-0.342-0.502-0.441c-0.221-0.092-0.855-0.141-0.855-0.141c-0.359,0-0.734,0.088-1.127,0.266
			c-0.391,0.178-0.768,0.404-1.129,0.678L121.393,47.85z"/>
		<path fill="#010101" d="M135.945,44.715h-5.766c0,0.484,0.07,0.9,0.221,1.26c0.143,0.355,0.342,0.648,0.592,0.879
			c0.242,0.227,0.533,0.391,0.867,0.506c0.334,0.107,0.695,0.166,1.102,0.166c0.533,0,1.068-0.104,1.607-0.32
			c0.543-0.211,0.928-0.424,1.15-0.623h0.068v1.438c-0.439,0.182-0.893,0.342-1.355,0.463c-0.465,0.133-0.949,0.189-1.457,0.189
			c-1.299,0-2.312-0.35-3.041-1.053c-0.727-0.697-1.09-1.697-1.09-2.992c0-1.277,0.35-2.293,1.049-3.049
			c0.691-0.742,1.613-1.121,2.752-1.121c1.055,0,1.867,0.303,2.439,0.922c0.572,0.613,0.861,1.492,0.861,2.625V44.715z
			 M134.666,43.709c-0.004-0.691-0.186-1.225-0.527-1.604c-0.338-0.381-0.863-0.566-1.562-0.566c-0.705,0-1.262,0.209-1.686,0.625
			c-0.422,0.414-0.654,0.926-0.711,1.545H134.666z"/>
		<path fill="#010101" d="M138.555,41.309L138.555,41.309c0-0.35,0.279-0.633,0.629-0.643h0.689v0.873
			c0.406-0.342,0.818-0.609,1.225-0.801c0.41-0.188,0.846-0.283,1.311-0.283c0.535,0,0.984,0.111,1.354,0.332
			c0.373,0.225,0.65,0.535,0.822,0.938c0.541-0.451,1.029-0.777,1.463-0.973c0.445-0.197,0.906-0.297,1.412-0.297
			c0.855,0,1.49,0.262,1.895,0.777c0.412,0.521,0.615,1.248,0.615,2.188v5.072h-1.314v-4.453c0-0.338-0.014-0.662-0.047-0.971
			c-0.027-0.316-0.094-0.566-0.189-0.752c-0.111-0.207-0.262-0.352-0.465-0.453c-0.195-0.103-0.49-0.158-0.865-0.158
			c-0.367,0-0.736,0.096-1.111,0.277c-0.363,0.18-0.738,0.42-1.102,0.703c0.008,0.113,0.021,0.234,0.029,0.377
			c0.014,0.141,0.014,0.283,0.014,0.42v5.01h-1.314v-4.453c0-0.344-0.012-0.676-0.045-0.984c-0.029-0.311-0.09-0.558-0.191-0.746
			c-0.107-0.199-0.258-0.355-0.469-0.453c-0.193-0.095-0.48-0.15-0.863-0.15c-0.359,0-0.719,0.09-1.086,0.268
			c-0.359,0.176-0.719,0.402-1.076,0.678v5.842h-1.318V41.309z"/>
		<path fill="#010101" d="M152.715,41.309L152.715,41.309c0-0.35,0.281-0.633,0.629-0.643h0.693v0.873
			c0.406-0.342,0.814-0.609,1.227-0.801c0.408-0.188,0.844-0.283,1.307-0.283c0.535,0,0.982,0.111,1.357,0.332
			c0.369,0.225,0.65,0.535,0.82,0.938c0.541-0.451,1.027-0.777,1.465-0.973c0.439-0.197,0.904-0.297,1.41-0.297
			c0.852,0,1.49,0.262,1.898,0.777c0.408,0.521,0.611,1.248,0.611,2.188v5.072h-1.314v-4.453c0-0.338-0.014-0.662-0.049-0.971
			c-0.025-0.316-0.092-0.566-0.188-0.752c-0.111-0.207-0.264-0.352-0.467-0.453c-0.193-0.103-0.488-0.158-0.865-0.158
			c-0.365,0-0.734,0.096-1.107,0.277c-0.367,0.18-0.742,0.42-1.104,0.703c0.008,0.113,0.021,0.234,0.031,0.377
			c0.008,0.141,0.008,0.283,0.008,0.42v5.01h-1.314v-4.453c0-0.344-0.008-0.676-0.039-0.984c-0.035-0.311-0.096-0.558-0.193-0.746
			c-0.105-0.199-0.258-0.355-0.471-0.453c-0.193-0.095-0.479-0.15-0.859-0.15c-0.361,0-0.723,0.09-1.086,0.268
			c-0.361,0.176-0.721,0.402-1.078,0.678v5.842h-1.322V41.309z"/>
		<path fill="#010101" d="M173.576,44.715h-5.762c0,0.484,0.07,0.9,0.211,1.26c0.146,0.355,0.344,0.648,0.604,0.879
			c0.236,0.227,0.531,0.391,0.861,0.506c0.332,0.107,0.701,0.166,1.102,0.166c0.537,0,1.068-0.104,1.604-0.32
			c0.541-0.211,0.928-0.424,1.152-0.623h0.074v1.438c-0.447,0.182-0.896,0.342-1.357,0.463c-0.465,0.133-0.949,0.189-1.459,0.189
			c-1.297,0-2.316-0.35-3.037-1.053c-0.732-0.697-1.094-1.697-1.094-2.992c0-1.277,0.352-2.293,1.047-3.049
			c0.703-0.742,1.617-1.121,2.754-1.121c1.061,0,1.873,0.303,2.439,0.922c0.576,0.613,0.861,1.492,0.861,2.625V44.715z
			 M172.293,43.709c-0.004-0.691-0.176-1.225-0.523-1.604c-0.342-0.381-0.861-0.566-1.559-0.566c-0.709,0-1.271,0.209-1.689,0.625
			c-0.416,0.414-0.654,0.926-0.707,1.545H172.293z"/>
		<path fill="#010101" d="M182.76,48.492h-1.312v-0.818c-0.383,0.328-0.777,0.58-1.188,0.768c-0.408,0.182-0.852,0.27-1.332,0.27
			c-0.936,0-1.678-0.359-2.227-1.08c-0.551-0.721-0.822-1.713-0.822-2.99c0-0.666,0.098-1.256,0.285-1.77
			c0.186-0.524,0.445-0.959,0.766-1.326c0.316-0.357,0.689-0.621,1.111-0.811c0.422-0.185,0.857-0.277,1.314-0.277
			c0.408,0,0.773,0.039,1.09,0.125c0.316,0.084,0.65,0.217,1.002,0.404v-3.393h1.312V48.492z M181.447,46.561v-4.479
			c-0.357-0.164-0.672-0.271-0.953-0.332c-0.277-0.062-0.59-0.094-0.914-0.094c-0.74,0-1.314,0.258-1.723,0.775
			c-0.414,0.504-0.621,1.24-0.621,2.184c0,0.926,0.158,1.635,0.475,2.115c0.326,0.484,0.83,0.727,1.525,0.727
			c0.379,0,0.756-0.086,1.133-0.252C180.756,47.043,181.113,46.83,181.447,46.561"/>
		<path fill="#010101" d="M192.182,44.715h-5.76c0,0.484,0.07,0.9,0.211,1.26c0.148,0.355,0.346,0.648,0.598,0.879
			c0.24,0.227,0.531,0.391,0.865,0.506c0.334,0.107,0.703,0.166,1.1,0.166c0.535,0,1.07-0.104,1.607-0.32
			c0.545-0.211,0.922-0.424,1.156-0.623h0.066v1.438c-0.441,0.182-0.893,0.342-1.359,0.463c-0.461,0.133-0.945,0.189-1.455,0.189
			c-1.295,0-2.307-0.35-3.035-1.053c-0.73-0.697-1.094-1.697-1.094-2.992c0-1.277,0.35-2.293,1.045-3.049
			c0.695-0.742,1.617-1.121,2.756-1.121c1.055,0,1.871,0.303,2.443,0.922c0.566,0.613,0.855,1.492,0.855,2.625V44.715z
			 M190.9,43.709c0-0.691-0.182-1.225-0.523-1.604c-0.344-0.381-0.861-0.566-1.561-0.566c-0.713,0-1.27,0.209-1.688,0.625
			c-0.414,0.414-0.65,0.926-0.707,1.545H190.9z"/>
		<path fill="#010101" d="M200.66,46.238c0,0.711-0.291,1.299-0.883,1.758c-0.586,0.455-1.398,0.688-2.422,0.688
			c-0.572,0-1.104-0.068-1.588-0.209c-0.482-0.141-0.891-0.285-1.217-0.449v-1.479h0.07c0.418,0.313,0.879,0.561,1.385,0.746
			c0.51,0.182,1.002,0.279,1.463,0.279c0.58,0,1.037-0.098,1.363-0.281c0.32-0.188,0.492-0.482,0.492-0.887
			c0-0.307-0.092-0.541-0.27-0.699c-0.18-0.158-0.521-0.295-1.027-0.404c-0.189-0.041-0.426-0.092-0.725-0.146
			c-0.305-0.059-0.576-0.125-0.826-0.184c-0.686-0.184-1.17-0.451-1.465-0.805c-0.279-0.35-0.426-0.785-0.426-1.297
			c0-0.322,0.07-0.627,0.199-0.914c0.135-0.281,0.334-0.535,0.609-0.758c0.26-0.221,0.594-0.4,0.994-0.523
			c0.404-0.125,0.857-0.19,1.354-0.19c0.471,0,0.943,0.059,1.42,0.17c0.482,0.111,0.879,0.252,1.199,0.416v1.406h-0.07
			c-0.344-0.246-0.748-0.455-1.23-0.629c-0.479-0.168-0.949-0.256-1.416-0.256c-0.479,0-0.887,0.098-1.217,0.279
			c-0.33,0.182-0.496,0.459-0.496,0.822c0,0.324,0.102,0.568,0.299,0.727c0.197,0.164,0.514,0.299,0.953,0.398
			c0.242,0.062,0.514,0.121,0.818,0.174c0.303,0.055,0.553,0.104,0.756,0.152c0.609,0.137,1.076,0.381,1.41,0.717
			C200.502,45.209,200.66,45.666,200.66,46.238"/>
		<path fill="#010101" d="M215.004,44.586c0,1.274-0.326,2.279-0.98,3.01c-0.654,0.746-1.529,1.115-2.623,1.115
			c-1.107,0-1.986-0.369-2.641-1.115c-0.646-0.73-0.977-1.736-0.977-3.01c0-1.275,0.33-2.281,0.977-3.02
			c0.654-0.744,1.533-1.109,2.641-1.109c1.094,0,1.969,0.365,2.623,1.109C214.678,42.305,215.004,43.311,215.004,44.586
			 M213.646,44.586c0-1.012-0.199-1.768-0.594-2.259c-0.396-0.495-0.949-0.741-1.652-0.741c-0.717,0-1.266,0.246-1.666,0.741
			c-0.396,0.492-0.588,1.248-0.588,2.259c0,0.982,0.197,1.725,0.592,2.229c0.4,0.508,0.949,0.764,1.662,0.764
			c0.697,0,1.248-0.256,1.646-0.752C213.447,46.318,213.646,45.574,213.646,44.586"/>
		<path fill="#010101" d="M217.219,41.307L217.219,41.307c0-0.35,0.281-0.633,0.629-0.643l0.684,0.002v1.161
			c0.527-0.418,0.99-0.717,1.391-0.893c0.398-0.176,0.807-0.268,1.217-0.268c0.232,0,0.4,0.008,0.496,0.02
			c0.109,0.014,0.26,0.037,0.471,0.066v1.354h-0.076c-0.197-0.047-0.387-0.08-0.57-0.095c-0.18-0.028-0.65-0.038-0.65-0.038
			c-0.408,0-0.799,0.086-1.178,0.27c-0.383,0.18-0.742,0.408-1.1,0.693v5.557h-1.312V41.307z"/>
		<path fill="#010101" d="M230.221,47.598c0,1.328-0.303,2.303-0.904,2.924c-0.602,0.625-1.529,0.936-2.781,0.936
			c-0.418,0-0.818-0.031-1.209-0.088c-0.4-0.055-0.791-0.146-1.17-0.248V49.77h0.066c0.221,0.09,0.559,0.191,1.025,0.314
			c0.465,0.127,0.932,0.188,1.4,0.188c0.449,0,0.818-0.053,1.113-0.16c0.293-0.106,0.521-0.26,0.684-0.449
			c0.164-0.182,0.281-0.4,0.357-0.658c0.064-0.256,0.096-0.541,0.096-0.861v-0.715c-0.387,0.318-0.773,0.555-1.137,0.713
			c-0.357,0.154-0.822,0.232-1.381,0.232c-0.936,0-1.68-0.338-2.219-1.013c-0.555-0.67-0.822-1.625-0.822-2.856
			c0-0.67,0.092-1.25,0.281-1.734c0.186-0.486,0.439-0.906,0.773-1.268c0.299-0.324,0.668-0.586,1.104-0.771
			c0.439-0.182,0.865-0.273,1.297-0.273c0.451,0,0.834,0.043,1.137,0.133c0.303,0.094,0.629,0.232,0.967,0.418l0.088-0.342h1.234
			V47.598z M228.898,46.346v-4.264c-0.348-0.164-0.676-0.275-0.975-0.344c-0.295-0.064-0.604-0.1-0.896-0.1
			c-0.721,0-1.297,0.238-1.711,0.727c-0.412,0.484-0.623,1.191-0.623,2.111c0,0.875,0.158,1.545,0.461,2
			c0.312,0.451,0.822,0.68,1.533,0.68c0.387,0,0.77-0.076,1.152-0.221C228.223,46.789,228.578,46.59,228.898,46.346"/>
		<path fill="#010101" d="M238.91,48.492H237.6V47.66c-0.119,0.08-0.275,0.188-0.469,0.332c-0.199,0.143-0.396,0.256-0.576,0.34
			c-0.225,0.109-0.475,0.199-0.76,0.268c-0.283,0.072-0.617,0.111-1.002,0.111c-0.703,0-1.309-0.234-1.789-0.699
			c-0.492-0.473-0.738-1.066-0.738-1.787c0-0.594,0.127-1.074,0.381-1.441c0.256-0.365,0.615-0.65,1.086-0.865
			c0.48-0.209,1.051-0.352,1.719-0.428c0.668-0.072,1.385-0.125,2.148-0.164v-0.208c0-0.297-0.047-0.545-0.158-0.744
			c-0.1-0.191-0.254-0.348-0.453-0.457c-0.184-0.107-0.408-0.18-0.668-0.221c-0.258-0.035-0.535-0.055-0.816-0.055
			c-0.352,0-0.734,0.045-1.16,0.139c-0.426,0.09-0.865,0.221-1.314,0.395h-0.074V40.84c0.26-0.07,0.629-0.148,1.115-0.236
			c0.488-0.082,0.963-0.119,1.438-0.119c0.555,0,1.033,0.037,1.438,0.133c0.404,0.092,0.76,0.25,1.062,0.469
			c0.295,0.213,0.516,0.484,0.67,0.832c0.152,0.342,0.232,0.76,0.232,1.266V48.492z M237.6,46.561v-2.17
			c-0.398,0.019-0.875,0.06-1.418,0.105c-0.541,0.041-0.977,0.114-1.293,0.199c-0.373,0.107-0.676,0.275-0.918,0.504
			c-0.234,0.225-0.344,0.537-0.344,0.932c0,0.451,0.133,0.791,0.4,1.014c0.273,0.227,0.686,0.336,1.244,0.336
			c0.461,0,0.887-0.086,1.266-0.266C236.92,47.035,237.275,46.816,237.6,46.561"/>
		<path fill="#010101" d="M252.463,39.357h-1.486v-1.363h1.486V39.357z M252.375,48.492h-1.318v-7.826h1.318V48.492z"/>
		<path fill="#010101" d="M260.988,46.238c0,0.711-0.295,1.299-0.883,1.758c-0.59,0.455-1.398,0.688-2.418,0.688
			c-0.58,0-1.115-0.068-1.596-0.209c-0.482-0.141-0.887-0.285-1.213-0.449v-1.479h0.07c0.418,0.313,0.879,0.561,1.385,0.746
			c0.506,0.182,0.998,0.279,1.463,0.279c0.576,0,1.037-0.098,1.353-0.281c0.33-0.188,0.492-0.482,0.492-0.887
			c0-0.307-0.09-0.541-0.264-0.699c-0.176-0.158-0.517-0.295-1.02-0.404c-0.19-0.041-0.43-0.092-0.734-0.146
			c-0.303-0.059-0.574-0.125-0.82-0.184c-0.689-0.184-1.174-0.451-1.459-0.805c-0.293-0.35-0.432-0.785-0.432-1.297
			c0-0.322,0.07-0.627,0.197-0.914c0.137-0.281,0.336-0.535,0.607-0.758c0.26-0.221,0.598-0.4,0.998-0.523
			c0.404-0.125,0.852-0.19,1.354-0.19c0.465,0,0.936,0.059,1.42,0.17c0.479,0.111,0.873,0.252,1.188,0.416v1.406h-0.068
			c-0.334-0.246-0.742-0.455-1.221-0.629c-0.478-0.168-0.953-0.256-1.416-0.256c-0.482,0-0.887,0.098-1.217,0.279
			c-0.334,0.182-0.502,0.459-0.502,0.822c0,0.324,0.102,0.568,0.305,0.727c0.197,0.164,0.514,0.299,0.953,0.398
			c0.242,0.062,0.514,0.121,0.816,0.174c0.299,0.055,0.545,0.104,0.752,0.152c0.607,0.137,1.082,0.381,1.412,0.717
			C260.826,45.209,260.988,45.666,260.988,46.238"/>
		<path fill="#010101" d="M269.768,48.492h-1.309V47.66c-0.111,0.08-0.268,0.188-0.471,0.332c-0.197,0.143-0.397,0.256-0.58,0.34
			c-0.215,0.109-0.471,0.199-0.756,0.268c-0.281,0.072-0.619,0.111-1.002,0.111c-0.703,0-1.301-0.234-1.789-0.699
			c-0.492-0.473-0.734-1.066-0.734-1.787c0-0.594,0.125-1.074,0.379-1.441c0.26-0.365,0.619-0.65,1.09-0.865
			c0.479-0.209,1.051-0.352,1.719-0.428c0.668-0.072,1.385-0.125,2.145-0.164v-0.208c0-0.297-0.045-0.545-0.154-0.744
			c-0.105-0.191-0.25-0.348-0.455-0.457c-0.178-0.107-0.41-0.18-0.67-0.221c-0.264-0.035-0.537-0.055-0.816-0.055
			c-0.344,0-0.727,0.045-1.152,0.139c-0.426,0.09-0.869,0.221-1.322,0.395h-0.066V40.84c0.246-0.07,0.625-0.148,1.111-0.236
			c0.488-0.082,0.967-0.119,1.434-0.119c0.549,0,1.027,0.037,1.436,0.133c0.414,0.092,0.766,0.25,1.064,0.469
			c0.295,0.213,0.52,0.484,0.672,0.832c0.158,0.342,0.229,0.76,0.229,1.266V48.492z M268.459,46.561v-2.17
			c-0.397,0.019-0.871,0.06-1.416,0.105c-0.541,0.041-0.975,0.114-1.287,0.199c-0.379,0.107-0.686,0.275-0.924,0.504
			c-0.229,0.225-0.346,0.537-0.346,0.932c0,0.451,0.131,0.791,0.404,1.014c0.271,0.227,0.685,0.336,1.234,0.336
			c0.471,0,0.893-0.086,1.27-0.266C267.781,47.035,268.133,46.816,268.459,46.561"/>
		<path fill="#010101" d="M278.377,46.238c0,0.711-0.295,1.299-0.889,1.758c-0.588,0.455-1.397,0.688-2.42,0.688
			c-0.572,0-1.104-0.068-1.592-0.209c-0.478-0.141-0.887-0.285-1.213-0.449v-1.479h0.066c0.418,0.313,0.879,0.561,1.389,0.746
			c0.51,0.182,1.002,0.279,1.463,0.279c0.586,0,1.033-0.098,1.357-0.281c0.326-0.188,0.498-0.482,0.498-0.887
			c0-0.307-0.094-0.541-0.273-0.699c-0.176-0.158-0.514-0.295-1.023-0.404c-0.186-0.041-0.43-0.092-0.729-0.146
			c-0.305-0.059-0.576-0.125-0.826-0.184c-0.688-0.184-1.17-0.451-1.455-0.805c-0.291-0.35-0.432-0.785-0.432-1.297
			c0-0.322,0.066-0.627,0.197-0.914c0.137-0.281,0.34-0.535,0.607-0.758c0.256-0.221,0.594-0.4,0.998-0.523
			c0.408-0.125,0.852-0.19,1.354-0.19c0.471,0,0.939,0.059,1.418,0.17c0.48,0.111,0.881,0.252,1.195,0.416v1.406h-0.074
			c-0.334-0.246-0.742-0.455-1.221-0.629c-0.479-0.168-0.955-0.256-1.416-0.256c-0.478,0-0.883,0.098-1.217,0.279
			c-0.334,0.182-0.5,0.459-0.5,0.822c0,0.324,0.103,0.568,0.307,0.727c0.193,0.164,0.51,0.299,0.949,0.398
			c0.246,0.062,0.518,0.121,0.818,0.174c0.299,0.055,0.553,0.104,0.75,0.152c0.615,0.137,1.076,0.381,1.42,0.717
			C278.219,45.209,278.377,45.666,278.377,46.238"/>
		<path fill="#010101" d="M282.529,48.684c0,0.916-0.242,1.604-0.707,2.07c-0.461,0.469-1.09,0.703-1.871,0.703
			c-0.189,0-0.441-0.021-0.744-0.061c-0.299-0.037-0.553-0.08-0.764-0.135v-1.256h0.07c0.131,0.051,0.312,0.106,0.527,0.17
			c0.223,0.074,0.436,0.104,0.65,0.104c0.338,0,0.602-0.051,0.809-0.139c0.211-0.094,0.365-0.238,0.465-0.42
			c0.102-0.188,0.162-0.412,0.197-0.678c0.031-0.268,0.045-0.586,0.045-0.965l-0.018-7.399l1.34-0.014V48.684z M282.609,39.357
			h-1.486v-1.363h1.486V39.357z"/>
		<path fill="#010101" d="M291.846,44.586c0,1.274-0.324,2.279-0.978,3.01c-0.656,0.746-1.531,1.115-2.629,1.115
			c-1.104,0-1.986-0.369-2.637-1.115c-0.646-0.73-0.977-1.736-0.977-3.01c0-1.275,0.33-2.281,0.977-3.02
			c0.65-0.744,1.533-1.109,2.637-1.109c1.098,0,1.973,0.365,2.629,1.109C291.521,42.305,291.846,43.311,291.846,44.586
			 M290.484,44.586c0-1.012-0.193-1.768-0.594-2.259c-0.391-0.495-0.945-0.741-1.652-0.741c-0.717,0-1.266,0.246-1.662,0.741
			c-0.395,0.492-0.592,1.248-0.592,2.259c0,0.982,0.201,1.725,0.598,2.229c0.395,0.508,0.949,0.764,1.656,0.764
			c0.703,0,1.248-0.256,1.648-0.752C290.291,46.318,290.484,45.574,290.484,44.586"/>
		<path fill="#010101" d="M241.67,41.309L241.67,41.309c0-0.35,0.281-0.633,0.629-0.643h0.689v0.877
			c0.408-0.346,0.83-0.613,1.27-0.803c0.443-0.189,0.887-0.285,1.357-0.285c0.84,0,1.486,0.256,1.93,0.762
			c0.443,0.51,0.668,1.242,0.668,2.203v5.074h-1.314v-4.455c0-0.357-0.025-0.693-0.064-1.012c-0.045-0.315-0.123-0.562-0.234-0.742
			c-0.113-0.195-0.285-0.338-0.506-0.438c-0.215-0.094-0.5-0.143-0.852-0.143c-0.359,0-0.734,0.09-1.125,0.268
			c-0.395,0.176-0.773,0.404-1.129,0.678v5.844h-1.318V41.309z"/>
		<path fill="#010101" d="M293.863,41.297L293.863,41.297c0-0.351,0.281-0.633,0.629-0.644l0.686,0.002v0.873
			c0.412-0.344,0.834-0.611,1.27-0.799c0.443-0.191,0.889-0.285,1.357-0.285c0.844,0,1.49,0.252,1.93,0.76
			c0.443,0.51,0.668,1.244,0.668,2.203v5.074h-1.315v-4.455c0-0.359-0.021-0.691-0.066-1.01c-0.039-0.315-0.117-0.565-0.232-0.742
			c-0.109-0.197-0.285-0.338-0.5-0.441c-0.221-0.09-0.506-0.139-0.853-0.139c-0.365,0-0.732,0.086-1.129,0.266
			c-0.395,0.178-0.773,0.404-1.129,0.68v5.842h-1.314V41.297z"/>
	</g>
</g>
</svg>
