<?xml version="1.0" encoding="utf-8"?>
<!-- Generator: Adobe Illustrator 17.1.0, SVG Export Plug-In . SVG Version: 6.00 Build 0)  -->
<!DOCTYPE svg PUBLIC "-//W3C//DTD SVG 1.1//EN" "http://www.w3.org/Graphics/SVG/1.1/DTD/svg11.dtd">
<svg version="1.1" id="Layer_1" xmlns="http://www.w3.org/2000/svg" xmlns:xlink="http://www.w3.org/1999/xlink" x="0px" y="0px"
	 width="432.6px" height="88.6px" viewBox="0 0 432.6 88.6" enable-background="new 0 0 432.6 88.6" xml:space="preserve">
<g>
	<g>
		<g>
			<defs>
				<rect id="SVGID_1_" x="-1.4" y="0" width="434" height="88.6"/>
			</defs>
			<clipPath id="SVGID_2_">
				<use xlink:href="#SVGID_1_"  overflow="visible"/>
			</clipPath>
			<path clip-path="url(#SVGID_2_)" fill="#010101" d="M83.2,88.6l-0.1,0c-1.7-0.1-3-0.9-3.9-2.4c-0.2-0.3-0.3-0.6-0.4-0.8
				c-0.9-1.7-1-2-3.7-2.8c-3.7-1.1-9.9-2.4-17-4c-10.7-2.3-22.9-4.9-32.1-7.9C12.4,66.2,4,59.7,1.2,51.2c-3.4-10.1,2.5-19,3.1-19.9
				c11.1-16,35.2-26.3,69.9-29.9C87.9,0,98,0,102.3,0h0c1.2,0,2.4,0.5,3.2,1.3c0.7,0.7,1.1,1.7,1.1,2.7c0,0.5-0.1,0.9-0.3,1.4
				l-6,15.5c-0.3,0.9-1.4,2.6-3.3,2.6c-0.1,0-0.1,0-0.2,0c-1.7-0.1-2.3-0.8-2.8-1.6c-0.2-0.4-0.5-0.7-1-1c-2.6-1.6-7.4-2.4-14.2-2.4
				c-3.4,0-7.3,0.2-11.6,0.6c-23.5,2.6-51,11.8-51,28.9c0.4,5.5,4.3,8.8,8.1,11.3c7.7,5.1,26.3,9.9,39.9,13.4
				c5.5,1.4,10.3,2.6,13.6,3.7c2.8,0.9,5.2,2,6.5,3c2.9,2.2,3,5,2.9,5.8C86.9,87.1,85.3,88.6,83.2,88.6"/>
		</g>
	</g>
	<g>
		<g>
			<defs>
				<path id="SVGID_3_" d="M102.3,1.3c-5.2,0-14.9,0.1-27.9,1.4C38.6,6.3,15.9,16.9,5.4,32c-3.2,4.6-13.5,26.1,21,37.5
					c15.4,5.1,39.8,9.1,49.1,11.9c3.6,1.1,3.5,1.7,4.9,4.2c0.6,1.1,1.5,1.7,2.8,1.8c1.4,0,2.6-1,2.7-2.5c0.1-0.9-0.2-3-2.4-4.7
					c-1.1-0.9-3.4-1.9-6.1-2.8c-11.6-3.6-42.8-10-53.8-17.2c-4.1-2.7-8.2-6.3-8.6-12.3c0-17.2,25.7-27.3,52.2-30.2
					c17.5-1.5,23.9,0.3,26.7,2c1.9,1.2,1.2,2.3,3.2,2.4c1.6,0.1,2.2-1.8,2.2-1.8l6-15.5l0,0c0.1-0.3,0.2-0.6,0.2-0.9
					C105.4,2.5,104,1.3,102.3,1.3C102.3,1.3,102.3,1.3,102.3,1.3z"/>
			</defs>
			<use xlink:href="#SVGID_3_"  overflow="visible"/>
			<clipPath id="SVGID_4_">
				<use xlink:href="#SVGID_3_"  overflow="visible"/>
			</clipPath>
			<rect x="-8.1" y="1.3" clip-path="url(#SVGID_4_)" width="113.4" height="86.1"/>
		</g>
	</g>
	<g>
		<g>
			<defs>
				<rect id="SVGID_5_" x="-1.4" y="0" width="434" height="88.6"/>
			</defs>
			<clipPath id="SVGID_6_">
				<use xlink:href="#SVGID_5_"  overflow="visible"/>
			</clipPath>
			<path clip-path="url(#SVGID_6_)" fill="#010101" d="M67.7,62.1c-9.1,0-16.6-7.4-16.6-16.6c0-9.1,7.4-16.6,16.6-16.6
				c9.1,0,16.6,7.4,16.6,16.6C84.2,54.7,76.8,62.1,67.7,62.1"/>
		</g>
	</g>
	<g>
		<g>
			<defs>
				<path id="SVGID_7_" d="M52.4,45.5c0,8.4,6.8,15.3,15.3,15.3c8.4,0,15.3-6.8,15.3-15.3c0-8.4-6.8-15.3-15.3-15.3
					C59.2,30.3,52.4,37.1,52.4,45.5"/>
			</defs>
			<use xlink:href="#SVGID_7_"  overflow="visible"/>
			<clipPath id="SVGID_8_">
				<use xlink:href="#SVGID_7_"  overflow="visible"/>
			</clipPath>
			<rect x="52.4" y="30.3" clip-path="url(#SVGID_8_)" width="30.6" height="30.6"/>
		</g>
	</g>
	<polygon fill="#010101" points="135.5,45.6 130.9,45.6 123,32.9 122.7,32.3 122.9,33.5 122.9,45.6 118.4,45.6 118.4,26.7 
		124.2,26.7 131,37.3 131.4,38 131.1,36.7 131.1,26.7 135.5,26.8 	"/>
	<g>
		<g>
			<defs>
				<rect id="SVGID_9_" x="-1.4" y="0" width="434" height="88.6"/>
			</defs>
			<clipPath id="SVGID_10_">
				<use xlink:href="#SVGID_9_"  overflow="visible"/>
			</clipPath>
			<path clip-path="url(#SVGID_10_)" fill="#010101" d="M154.4,38.5c0,2.3-0.7,4.2-2,5.5c-1.4,1.3-3.3,2-5.7,2c-2.5,0-4.4-0.7-5.7-2
				c-1.4-1.3-2-3.2-2-5.5c0-2.4,0.7-4.2,2.1-5.5c1.4-1.3,3.3-2,5.7-2c2.5,0,4.4,0.7,5.7,2C153.7,34.3,154.4,36.1,154.4,38.5
				 M148.8,41.9c0.3-0.4,0.5-0.8,0.7-1.3c0.1-0.5,0.2-1.2,0.2-2.1c0-0.8-0.1-1.5-0.2-2.1c-0.2-0.6-0.4-1-0.6-1.4
				c-0.3-0.3-0.6-0.6-1-0.7c-0.4-0.1-0.8-0.2-1.2-0.2c-0.4,0-0.8,0.1-1.2,0.2c-0.3,0.1-0.7,0.4-1,0.7c-0.3,0.3-0.5,0.8-0.7,1.4
				c-0.2,0.6-0.2,1.3-0.2,2.2c0,0.8,0.1,1.4,0.2,2c0.1,0.6,0.4,1,0.6,1.4c0.3,0.3,0.6,0.6,1,0.7c0.4,0.2,0.8,0.2,1.3,0.2
				c0.4,0,0.8-0.1,1.2-0.2C148.2,42.5,148.5,42.2,148.8,41.9"/>
		</g>
		<g>
			<defs>
				<rect id="SVGID_11_" x="-1.4" y="0" width="434" height="88.6"/>
			</defs>
			<clipPath id="SVGID_12_">
				<use xlink:href="#SVGID_11_"  overflow="visible"/>
			</clipPath>
			<path clip-path="url(#SVGID_12_)" fill="#010101" d="M183.9,43.9c0,1.3-0.2,2.5-0.6,3.4c-0.4,0.9-0.9,1.6-1.6,2.1
				c-0.7,0.5-1.5,0.9-2.5,1.1c-1,0.2-2.1,0.3-3.3,0.3c-1,0-2-0.1-2.9-0.2c-1-0.1-1.8-0.3-2.5-0.4v-3.6h0.6c0.6,0.2,1.2,0.4,2,0.6
				c0.8,0.2,1.5,0.3,2.2,0.3c0.8,0,1.5-0.1,2-0.2c0.5-0.2,0.9-0.4,1.2-0.7c0.3-0.3,0.4-0.6,0.6-1c0.1-0.4,0.2-0.9,0.2-1.5v-0.3
				c-0.5,0.5-1.2,0.8-1.8,1.1c-0.7,0.3-1.4,0.4-2.2,0.4c-2,0-3.5-0.6-4.6-1.8c-1.1-1.2-1.6-3-1.6-5.5c0-1.2,0.2-2.2,0.5-3
				c0.3-0.8,0.8-1.6,1.4-2.2c0.6-0.6,1.3-1.1,2.1-1.4c0.8-0.3,1.6-0.5,2.5-0.5c0.8,0,1.5,0.1,2.1,0.3c0.6,0.2,1.2,0.4,1.7,0.8
				l0.2-0.6h4.4V43.9z M179.3,41.1v-6.4c-0.3-0.1-0.6-0.2-1-0.3c-0.4-0.1-0.7-0.1-1-0.1c-1.2,0-2.1,0.3-2.7,1
				c-0.6,0.7-0.9,1.6-0.9,2.9c0,1.4,0.3,2.3,0.8,2.9c0.5,0.5,1.3,0.8,2.3,0.8c0.5,0,0.9-0.1,1.3-0.2
				C178.5,41.5,178.9,41.3,179.3,41.1"/>
		</g>
		<g>
			<defs>
				<rect id="SVGID_13_" x="-1.4" y="0" width="434" height="88.6"/>
			</defs>
			<clipPath id="SVGID_14_">
				<use xlink:href="#SVGID_13_"  overflow="visible"/>
			</clipPath>
			<path clip-path="url(#SVGID_14_)" fill="#010101" d="M202,39.3h-10.4c0.1,1.1,0.5,2,1.3,2.6c0.8,0.6,1.9,0.9,3.4,0.9
				c1,0,1.9-0.2,2.8-0.5c0.9-0.3,1.6-0.7,2.1-1.1h0.5v3.7c-1,0.4-2,0.7-2.9,0.9c-0.9,0.2-1.9,0.3-3,0.3c-2.8,0-5-0.6-6.5-1.9
				c-1.5-1.3-2.3-3.1-2.3-5.5c0-2.3,0.7-4.2,2.2-5.6c1.4-1.4,3.4-2.1,5.9-2.1c2.3,0,4,0.6,5.2,1.7c1.2,1.2,1.7,2.9,1.7,5L202,39.3
				L202,39.3z M197.5,36.6c0-1-0.3-1.7-0.7-2.2c-0.4-0.5-1.1-0.7-2.1-0.7c-0.9,0-1.6,0.2-2.2,0.7c-0.6,0.5-0.9,1.2-0.9,2.2H197.5z"
				/>
		</g>
		<g>
			<defs>
				<rect id="SVGID_15_" x="-1.4" y="0" width="434" height="88.6"/>
			</defs>
			<clipPath id="SVGID_16_">
				<use xlink:href="#SVGID_15_"  overflow="visible"/>
			</clipPath>
			<path clip-path="url(#SVGID_16_)" fill="#010101" d="M218.4,41c0,1.5-0.7,2.7-2,3.5c-1.3,0.9-3.1,1.3-5.4,1.3
				c-1.3,0-2.4-0.1-3.4-0.4c-1-0.2-1.9-0.5-2.5-0.8v-3.7h0.4c0.2,0.2,0.5,0.3,0.8,0.5c0.3,0.2,0.7,0.4,1.3,0.6
				c0.5,0.2,1,0.4,1.6,0.5c0.6,0.1,1.2,0.2,1.9,0.2c0.9,0,1.6-0.1,2-0.3c0.4-0.2,0.6-0.5,0.6-0.9c0-0.3-0.1-0.6-0.4-0.8
				c-0.2-0.2-0.7-0.3-1.4-0.4c-0.3-0.1-0.8-0.2-1.4-0.3c-0.6-0.1-1.1-0.2-1.6-0.3c-1.3-0.3-2.3-0.9-2.9-1.6
				c-0.6-0.7-0.9-1.6-0.9-2.7c0-1.4,0.6-2.5,1.9-3.4c1.3-0.9,3.1-1.4,5.3-1.4c1.1,0,2.1,0.1,3,0.3c1,0.2,1.7,0.4,2.3,0.7v3.6h-0.4
				c-0.7-0.5-1.4-0.8-2.3-1.1c-0.9-0.3-1.7-0.4-2.6-0.4c-0.7,0-1.3,0.1-1.9,0.3c-0.5,0.2-0.7,0.5-0.7,0.9c0,0.3,0.1,0.6,0.3,0.8
				c0.2,0.2,0.8,0.3,1.6,0.5c0.5,0.1,1,0.2,1.5,0.3c0.5,0.1,1.1,0.2,1.6,0.3c1.2,0.3,2.1,0.8,2.7,1.5C218.1,39.2,218.4,40,218.4,41"
				/>
		</g>
		<g>
			<defs>
				<rect id="SVGID_17_" x="-1.4" y="0" width="434" height="88.6"/>
			</defs>
			<clipPath id="SVGID_18_">
				<use xlink:href="#SVGID_17_"  overflow="visible"/>
			</clipPath>
			<rect x="250" y="25.9" clip-path="url(#SVGID_18_)" fill="#010101" width="4.6" height="19.7"/>
		</g>
		<g>
			<defs>
				<rect id="SVGID_19_" x="-1.4" y="0" width="434" height="88.6"/>
			</defs>
			<clipPath id="SVGID_20_">
				<use xlink:href="#SVGID_19_"  overflow="visible"/>
			</clipPath>
			<path clip-path="url(#SVGID_20_)" fill="#010101" d="M263.5,29.3h-4.8v-3.5h4.8V29.3z M263.4,45.6h-4.6V31.4h4.6V45.6z"/>
		</g>
		<g>
			<defs>
				<rect id="SVGID_21_" x="-1.4" y="0" width="434" height="88.6"/>
			</defs>
			<clipPath id="SVGID_22_">
				<use xlink:href="#SVGID_21_"  overflow="visible"/>
			</clipPath>
			<path clip-path="url(#SVGID_22_)" fill="#010101" d="M299.9,45.6h-4.6v-1.5c-0.8,0.6-1.5,1.1-2.2,1.4c-0.7,0.3-1.5,0.4-2.4,0.4
				c-1.7,0-3.1-0.7-4.1-2c-1-1.3-1.6-3.1-1.6-5.4c0-1.2,0.2-2.3,0.5-3.2c0.3-0.9,0.8-1.7,1.4-2.4c0.6-0.6,1.3-1.1,2.1-1.5
				c0.8-0.3,1.6-0.5,2.5-0.5c0.8,0,1.5,0.1,2.1,0.3c0.6,0.2,1.1,0.4,1.7,0.7v-6h4.6L299.9,45.6L299.9,45.6z M295.4,41.6v-7
				c-0.3-0.1-0.7-0.2-1-0.3c-0.4-0.1-0.7-0.1-1-0.1c-1.2,0-2.1,0.4-2.7,1.1c-0.6,0.7-0.9,1.8-0.9,3.1c0,1.4,0.2,2.4,0.7,3
				c0.5,0.6,1.3,0.9,2.3,0.9c0.4,0,0.9-0.1,1.3-0.2C294.6,42.1,295,41.9,295.4,41.6"/>
		</g>
		<g>
			<defs>
				<rect id="SVGID_23_" x="-1.4" y="0" width="434" height="88.6"/>
			</defs>
			<clipPath id="SVGID_24_">
				<use xlink:href="#SVGID_23_"  overflow="visible"/>
			</clipPath>
			<path clip-path="url(#SVGID_24_)" fill="#010101" d="M318.2,39.3h-10.4c0.1,1.1,0.5,2,1.3,2.6c0.8,0.6,1.9,0.9,3.4,0.9
				c1,0,1.9-0.2,2.8-0.5c0.9-0.3,1.6-0.7,2.1-1.1h0.5v3.7c-1,0.4-2,0.7-2.9,0.9c-0.9,0.2-1.9,0.3-3,0.3c-2.8,0-5-0.6-6.5-1.9
				c-1.5-1.3-2.3-3.1-2.3-5.5c0-2.3,0.7-4.2,2.2-5.6c1.4-1.4,3.4-2.1,5.9-2.1c2.3,0,4,0.6,5.2,1.7c1.2,1.2,1.7,2.9,1.7,5L318.2,39.3
				L318.2,39.3z M313.7,36.6c0-1-0.3-1.7-0.7-2.2c-0.5-0.5-1.1-0.7-2.1-0.7c-0.9,0-1.6,0.2-2.2,0.7c-0.6,0.5-0.9,1.2-1,2.2H313.7z"
				/>
		</g>
		<g>
			<defs>
				<rect id="SVGID_25_" x="-1.4" y="0" width="434" height="88.6"/>
			</defs>
			<clipPath id="SVGID_26_">
				<use xlink:href="#SVGID_25_"  overflow="visible"/>
			</clipPath>
			<path clip-path="url(#SVGID_26_)" fill="#010101" d="M346.9,38.5c0,2.3-0.7,4.2-2,5.5c-1.4,1.3-3.3,2-5.7,2c-2.5,0-4.4-0.7-5.7-2
				c-1.4-1.3-2-3.2-2-5.5c0-2.4,0.7-4.2,2.1-5.5c1.4-1.3,3.3-2,5.7-2c2.5,0,4.4,0.7,5.8,2C346.2,34.3,346.9,36.1,346.9,38.5
				 M341.3,41.9c0.3-0.4,0.5-0.8,0.7-1.3c0.1-0.5,0.2-1.2,0.2-2.1c0-0.8-0.1-1.5-0.2-2.1c-0.2-0.6-0.4-1-0.6-1.4
				c-0.3-0.3-0.6-0.6-1-0.7c-0.4-0.1-0.8-0.2-1.2-0.2c-0.4,0-0.8,0.1-1.2,0.2c-0.3,0.1-0.7,0.4-1,0.7c-0.3,0.3-0.5,0.8-0.7,1.4
				c-0.2,0.6-0.2,1.3-0.2,2.2c0,0.8,0.1,1.4,0.2,2c0.1,0.6,0.4,1,0.6,1.4c0.3,0.3,0.6,0.6,1,0.7c0.4,0.2,0.8,0.2,1.3,0.2
				c0.4,0,0.8-0.1,1.2-0.2C340.7,42.5,341,42.2,341.3,41.9"/>
		</g>
		<g>
			<defs>
				<rect id="SVGID_27_" x="-1.4" y="0" width="434" height="88.6"/>
			</defs>
			<clipPath id="SVGID_28_">
				<use xlink:href="#SVGID_27_"  overflow="visible"/>
			</clipPath>
			<path clip-path="url(#SVGID_28_)" fill="#010101" d="M377.8,38.3c0,2.2-0.6,4.1-1.8,5.5c-1.2,1.4-2.8,2.1-4.6,2.1
				c-0.8,0-1.5-0.1-2.1-0.3c-0.6-0.2-1.2-0.4-1.7-0.7l-0.2,0.7H363V25.9h4.6v7c0.7-0.6,1.4-1,2.1-1.4c0.7-0.3,1.6-0.5,2.5-0.5
				c1.8,0,3.2,0.6,4.1,1.9C377.3,34.2,377.8,36,377.8,38.3 M373.1,38.4c0-1.3-0.2-2.2-0.6-2.9c-0.4-0.7-1.2-1-2.3-1
				c-0.4,0-0.9,0.1-1.3,0.2c-0.5,0.1-0.9,0.3-1.3,0.6v7.1c0.3,0.1,0.6,0.2,0.9,0.2c0.3,0.1,0.7,0.1,1.1,0.1c1.2,0,2.1-0.4,2.7-1.1
				C372.8,40.8,373.1,39.8,373.1,38.4"/>
		</g>
		<g>
			<defs>
				<rect id="SVGID_29_" x="-1.4" y="0" width="434" height="88.6"/>
			</defs>
			<clipPath id="SVGID_30_">
				<use xlink:href="#SVGID_29_"  overflow="visible"/>
			</clipPath>
			<path clip-path="url(#SVGID_30_)" fill="#010101" d="M431.8,45.6h-4.6v-1.5c-0.8,0.6-1.5,1.1-2.2,1.4c-0.7,0.3-1.5,0.4-2.4,0.4
				c-1.7,0-3.1-0.7-4.1-2c-1-1.3-1.5-3.1-1.5-5.4c0-1.2,0.2-2.3,0.5-3.2c0.4-0.9,0.8-1.7,1.4-2.4c0.6-0.6,1.3-1.1,2.1-1.5
				c0.8-0.3,1.6-0.5,2.5-0.5c0.9,0,1.6,0.1,2.1,0.3c0.5,0.2,1.1,0.4,1.7,0.7v-6h4.6V45.6z M427.3,41.6v-7c-0.3-0.1-0.7-0.2-1-0.3
				c-0.4-0.1-0.7-0.1-1-0.1c-1.2,0-2.1,0.4-2.7,1.1c-0.6,0.7-0.9,1.8-0.9,3.1c0,1.4,0.2,2.4,0.7,3c0.5,0.6,1.2,0.9,2.3,0.9
				c0.4,0,0.8-0.1,1.3-0.2C426.5,42.1,426.9,41.9,427.3,41.6"/>
		</g>
		<g>
			<defs>
				<rect id="SVGID_31_" x="-1.4" y="0" width="434" height="88.6"/>
			</defs>
			<clipPath id="SVGID_32_">
				<use xlink:href="#SVGID_31_"  overflow="visible"/>
			</clipPath>
			<path clip-path="url(#SVGID_32_)" fill="#010101" d="M280.6,32.3c-0.9-0.9-2.1-1.3-3.6-1.3c-0.9,0-1.7,0.2-2.5,0.5
				c-0.8,0.3-1.5,0.8-2.3,1.4v-1.6l-2.3,0c-1,0-2.2,0.9-2.2,2.3v11.9h4.6V35.5c0.5-0.3,1-0.5,1.4-0.6c0.4-0.1,0.8-0.2,1.3-0.2
				c0.6,0,1,0.1,1.4,0.2c0.3,0.1,0.6,0.4,0.7,0.7c0.1,0.3,0.2,0.7,0.3,1.3c0.1,0.6,0.1,1.1,0.1,1.7v7h4.6v-9.2
				C281.9,34.5,281.5,33.2,280.6,32.3"/>
		</g>
		<g>
			<defs>
				<rect id="SVGID_33_" x="-1.4" y="0" width="434" height="88.6"/>
			</defs>
			<clipPath id="SVGID_34_">
				<use xlink:href="#SVGID_33_"  overflow="visible"/>
			</clipPath>
			<path clip-path="url(#SVGID_34_)" fill="#010101" d="M412.5,32.3c-0.9-0.9-2.1-1.3-3.6-1.3c-0.9,0-1.7,0.2-2.5,0.5
				c-0.8,0.3-1.5,0.8-2.3,1.4v-1.6l-2.3,0c-1,0-2.2,0.9-2.2,2.3v11.9h4.6V35.5c0.5-0.3,1-0.5,1.4-0.6c0.4-0.1,0.8-0.2,1.3-0.2
				c0.6,0,1,0.1,1.4,0.2c0.3,0.1,0.6,0.4,0.7,0.7c0.1,0.3,0.2,0.7,0.3,1.3c0.1,0.6,0.1,1.1,0.1,1.7v7h4.6v-9.2
				C413.8,34.5,413.4,33.2,412.5,32.3"/>
		</g>
		<g>
			<defs>
				<rect id="SVGID_35_" x="-1.4" y="0" width="434" height="88.6"/>
			</defs>
			<clipPath id="SVGID_36_">
				<use xlink:href="#SVGID_35_"  overflow="visible"/>
			</clipPath>
			<path clip-path="url(#SVGID_36_)" fill="#010101" d="M245.5,36.8c-0.7-0.8-1.7-1.3-2.9-1.5v-0.1c0.9-0.4,1.6-0.9,2-1.6
				c0.5-0.7,0.7-1.5,0.7-2.4c0-0.8-0.2-1.5-0.5-2.1c-0.3-0.6-0.9-1.1-1.6-1.5c-0.7-0.4-1.4-0.6-2.1-0.7c-0.7-0.1-1.8-0.1-3.3-0.1h-5
				c-1.2,0-2.2,1-2.3,2.2v16.7h8.2c1.4,0,2.5-0.1,3.4-0.3c0.9-0.2,1.7-0.6,2.4-1.2c0.6-0.5,1.1-1.1,1.5-1.8c0.4-0.7,0.6-1.5,0.6-2.4
				C246.6,38.5,246.2,37.5,245.5,36.8 M235.3,30.2h0.5c0.9,0,1.7,0,2.2,0c0.5,0,1,0.1,1.3,0.2c0.4,0.2,0.7,0.4,0.8,0.7
				c0.2,0.3,0.2,0.6,0.2,0.9c0,0.4-0.1,0.8-0.2,1.1c-0.1,0.3-0.4,0.6-0.9,0.8c-0.3,0.1-0.7,0.2-1.3,0.3c-0.5,0-1.2,0-2,0h-0.8
				L235.3,30.2L235.3,30.2z M241.3,40.9c-0.2,0.4-0.5,0.6-1,0.8c-0.5,0.2-1,0.3-1.6,0.3c-0.6,0-1.6,0-2.9,0h-0.3v-4.7h1.1
				c0.7,0,1.4,0,2.1,0c0.7,0,1.2,0.1,1.6,0.2c0.6,0.2,1,0.4,1.2,0.7c0.2,0.3,0.3,0.8,0.3,1.4C241.6,40.2,241.5,40.6,241.3,40.9"/>
		</g>
		<g>
			<defs>
				<rect id="SVGID_37_" x="-1.4" y="0" width="434" height="88.6"/>
			</defs>
			<clipPath id="SVGID_38_">
				<use xlink:href="#SVGID_37_"  overflow="visible"/>
			</clipPath>
			<path clip-path="url(#SVGID_38_)" fill="#010101" d="M166.9,31.3c-0.2,0-0.4,0-0.5,0c-0.6,0-1.3,0.1-2,0.4
				c-0.7,0.3-1.6,0.9-2.6,1.7v-2.1h-2.3c-1.2,0-2.2,1-2.2,2.3h0v11.9h4.6V36c0.6-0.2,1.1-0.3,1.6-0.4c0.5-0.1,1.1-0.1,1.7-0.1
				c0.3,0,0.6,0,1.1,0.1c0.4,0,0.7,0.1,0.9,0.1h0.4v-4.3C167.3,31.3,167.1,31.3,166.9,31.3"/>
		</g>
		<g>
			<defs>
				<rect id="SVGID_39_" x="-1.4" y="0" width="434" height="88.6"/>
			</defs>
			<clipPath id="SVGID_40_">
				<use xlink:href="#SVGID_39_"  overflow="visible"/>
			</clipPath>
			<path clip-path="url(#SVGID_40_)" fill="#010101" d="M329.5,25.8c-0.5-0.1-1.2-0.1-1.8-0.1c-1.9,0-3.3,0.4-4.2,1.3
				c-0.9,0.9-1.4,2.2-1.4,3.9v0.4h-1.9v3.1h1.9v11.1h2.3c1.3,0,2.3-1,2.3-2.3v-8.8h3.4v-3.1h-3.5v-0.1c0-0.9,0.2-1.5,0.5-1.9
				c0.3-0.3,0.9-0.5,1.8-0.5c0.4,0,0.7,0,1,0.1c0.3,0.1,0.6,0.1,0.8,0.2h0.3V26C330.5,25.9,330,25.9,329.5,25.8"/>
		</g>
		<g>
			<defs>
				<rect id="SVGID_41_" x="-1.4" y="0" width="434" height="88.6"/>
			</defs>
			<clipPath id="SVGID_42_">
				<use xlink:href="#SVGID_41_"  overflow="visible"/>
			</clipPath>
			<path clip-path="url(#SVGID_42_)" fill="#010101" d="M393,45.6c1.3,0,2.3-1,2.3-2.3V31.4h-4.6v10.1c-0.4,0.3-0.9,0.5-1.4,0.6
				c-0.5,0.1-0.9,0.2-1.3,0.2c-0.6,0-1-0.1-1.4-0.2c-0.3-0.1-0.6-0.4-0.7-0.7c-0.2-0.3-0.3-0.7-0.3-1.2c0-0.5-0.1-1.1-0.1-1.8v-7
				H381v9.2c0,1.8,0.4,3.1,1.3,4c0.8,0.9,2.1,1.3,3.6,1.3c1,0,1.8-0.2,2.5-0.5c0.7-0.3,1.5-0.8,2.3-1.5v1.6
				C390.7,45.6,393,45.6,393,45.6z"/>
		</g>
		<g>
			<defs>
				<rect id="SVGID_43_" x="-1.4" y="0" width="434" height="88.6"/>
			</defs>
			<clipPath id="SVGID_44_">
				<use xlink:href="#SVGID_43_"  overflow="visible"/>
			</clipPath>
			<path clip-path="url(#SVGID_44_)" fill="#010101" d="M359.9,31.3c-0.2,0-0.4,0-0.5,0c-0.6,0-1.3,0.1-2,0.4
				c-0.7,0.3-1.6,0.9-2.6,1.7v-2.1h-2.3c-1.2,0-2.2,1-2.2,2.3h0v11.9h4.6V36c0.6-0.2,1.1-0.3,1.6-0.4c0.5-0.1,1.1-0.1,1.7-0.1
				c0.3,0,0.6,0,1.1,0.1c0.4,0,0.7,0.1,0.9,0.1h0.4v-4.3C360.3,31.3,360.1,31.3,359.9,31.3"/>
		</g>
		<g>
			<defs>
				<rect id="SVGID_45_" x="-1.4" y="0" width="434" height="88.6"/>
			</defs>
			<clipPath id="SVGID_46_">
				<use xlink:href="#SVGID_45_"  overflow="visible"/>
			</clipPath>
			<path clip-path="url(#SVGID_46_)" fill="#010101" d="M129.6,66.1c0,0.6-0.1,1.2-0.4,1.7c-0.3,0.6-0.7,1.1-1.1,1.5
				c-0.5,0.4-1.2,0.8-1.9,1c-0.7,0.2-1.6,0.4-2.6,0.4c-1.1,0-2.1-0.1-2.9-0.3c-0.9-0.2-1.7-0.5-2.6-0.9V67h0.1
				c0.8,0.6,1.6,1.1,2.6,1.5c1,0.3,1.9,0.5,2.8,0.5c1.2,0,2.2-0.2,2.9-0.7c0.7-0.5,1-1.1,1-1.9c0-0.7-0.2-1.2-0.5-1.5
				c-0.3-0.3-0.8-0.6-1.5-0.7c-0.5-0.1-1.1-0.2-1.6-0.3c-0.6-0.1-1.2-0.2-1.9-0.3c-1.3-0.3-2.3-0.8-3-1.4c-0.6-0.7-1-1.6-1-2.7
				c0-1.3,0.5-2.3,1.6-3.1c1.1-0.8,2.4-1.2,4.1-1.2c1.1,0,2,0.1,2.9,0.3c0.9,0.2,1.7,0.5,2.4,0.7v2.4h-0.1c-0.6-0.5-1.3-0.9-2.3-1.2
				c-0.9-0.3-1.9-0.5-2.9-0.5c-1.1,0-1.9,0.2-2.6,0.7c-0.7,0.4-1,1-1,1.7c0,0.6,0.2,1.1,0.5,1.5c0.3,0.4,0.9,0.6,1.7,0.8
				c0.4,0.1,1.1,0.2,1.8,0.3c0.8,0.1,1.5,0.3,2,0.4c1.1,0.3,2,0.7,2.5,1.3C129.3,64.2,129.6,65,129.6,66.1"/>
		</g>
		<g>
			<defs>
				<rect id="SVGID_47_" x="-1.4" y="0" width="434" height="88.6"/>
			</defs>
			<clipPath id="SVGID_48_">
				<use xlink:href="#SVGID_47_"  overflow="visible"/>
			</clipPath>
			<polygon clip-path="url(#SVGID_48_)" fill="#010101" points="143.5,59.1 136.9,74.6 134.9,74.6 137,69.9 132.5,59.1 134.6,59.1 
				138.1,67.5 141.6,59.1 			"/>
		</g>
		<g>
			<defs>
				<rect id="SVGID_49_" x="-1.4" y="0" width="434" height="88.6"/>
			</defs>
			<clipPath id="SVGID_50_">
				<use xlink:href="#SVGID_49_"  overflow="visible"/>
			</clipPath>
			<path clip-path="url(#SVGID_50_)" fill="#010101" d="M146.7,60L146.7,60c0-0.5,0.4-0.9,0.9-0.9h1v1.3c0.6-0.5,1.2-0.9,1.8-1.2
				c0.6-0.3,1.3-0.4,2-0.4c1.2,0,2.1,0.4,2.8,1.1c0.6,0.7,1,1.8,1,3.2v7.3h-1.9V64c0-0.5,0-1-0.1-1.5c-0.1-0.5-0.2-0.8-0.3-1.1
				c-0.2-0.3-0.4-0.5-0.7-0.6c-0.3-0.1-0.7-0.2-1.2-0.2c-0.5,0-1.1,0.1-1.6,0.4c-0.6,0.3-1.1,0.6-1.6,1v8.4h-1.9V60z"/>
		</g>
		<g>
			<defs>
				<rect id="SVGID_51_" x="-1.4" y="0" width="434" height="88.6"/>
			</defs>
			<clipPath id="SVGID_52_">
				<use xlink:href="#SVGID_51_"  overflow="visible"/>
			</clipPath>
			<path clip-path="url(#SVGID_52_)" fill="#010101" d="M168.8,67.2c0,1-0.4,1.9-1.3,2.5c-0.9,0.7-2,1-3.5,1c-0.8,0-1.6-0.1-2.3-0.3
				c-0.7-0.2-1.3-0.4-1.8-0.6v-2.1h0.1c0.6,0.5,1.3,0.8,2,1.1c0.7,0.3,1.4,0.4,2.1,0.4c0.8,0,1.5-0.1,2-0.4c0.5-0.3,0.7-0.7,0.7-1.3
				c0-0.4-0.1-0.8-0.4-1c-0.3-0.2-0.7-0.4-1.5-0.6c-0.3-0.1-0.6-0.1-1.1-0.2c-0.4-0.1-0.8-0.2-1.2-0.3c-1-0.3-1.7-0.7-2.1-1.2
				c-0.4-0.5-0.6-1.1-0.6-1.9c0-0.5,0.1-0.9,0.3-1.3c0.2-0.4,0.5-0.8,0.9-1.1c0.4-0.3,0.9-0.6,1.4-0.8c0.6-0.2,1.2-0.3,2-0.3
				c0.7,0,1.4,0.1,2.1,0.2c0.7,0.2,1.3,0.4,1.7,0.6v2h-0.1c-0.5-0.4-1.1-0.7-1.8-0.9c-0.7-0.2-1.4-0.4-2-0.4c-0.7,0-1.3,0.1-1.8,0.4
				c-0.5,0.3-0.7,0.7-0.7,1.2c0,0.5,0.1,0.8,0.4,1c0.3,0.2,0.7,0.4,1.4,0.6c0.4,0.1,0.7,0.2,1.2,0.2c0.4,0.1,0.8,0.1,1.1,0.2
				c0.9,0.2,1.6,0.6,2,1C168.5,65.7,168.8,66.3,168.8,67.2"/>
		</g>
		<g>
			<defs>
				<rect id="SVGID_53_" x="-1.4" y="0" width="434" height="88.6"/>
			</defs>
			<clipPath id="SVGID_54_">
				<use xlink:href="#SVGID_53_"  overflow="visible"/>
			</clipPath>
			<path clip-path="url(#SVGID_54_)" fill="#010101" d="M174,69.5L174,69.5c0,0.5-0.4,0.9-0.9,0.9h-1V54.7h1.9v5.7
				c0.6-0.5,1.2-0.9,1.8-1.2c0.6-0.3,1.3-0.4,1.9-0.4c1.2,0,2.1,0.4,2.8,1.1c0.6,0.7,1,1.8,1,3.2v7.3h-1.9V64c0-0.5,0-1-0.1-1.5
				c-0.1-0.5-0.2-0.8-0.3-1.1c-0.2-0.3-0.4-0.5-0.7-0.6c-0.3-0.1-1.2-0.2-1.2-0.2c-0.5,0-1.1,0.1-1.6,0.4c-0.6,0.3-1.1,0.6-1.6,1
				L174,69.5z"/>
		</g>
		<g>
			<defs>
				<rect id="SVGID_55_" x="-1.4" y="0" width="434" height="88.6"/>
			</defs>
			<clipPath id="SVGID_56_">
				<use xlink:href="#SVGID_55_"  overflow="visible"/>
			</clipPath>
			<path clip-path="url(#SVGID_56_)" fill="#010101" d="M195.1,65h-8.3c0,0.7,0.1,1.3,0.3,1.8c0.2,0.5,0.5,0.9,0.9,1.3
				c0.3,0.3,0.8,0.6,1.3,0.7c0.5,0.2,1,0.2,1.6,0.2c0.8,0,1.5-0.2,2.3-0.5c0.8-0.3,1.3-0.6,1.7-0.9h0.1v2.1c-0.6,0.3-1.3,0.5-2,0.7
				c-0.7,0.2-1.4,0.3-2.1,0.3c-1.9,0-3.3-0.5-4.4-1.5c-1.1-1-1.6-2.5-1.6-4.3c0-1.8,0.5-3.3,1.5-4.4c1-1.1,2.3-1.6,4-1.6
				c1.5,0,2.7,0.4,3.5,1.3c0.8,0.9,1.2,2.2,1.2,3.8L195.1,65L195.1,65z M193.2,63.5c0-1-0.3-1.8-0.8-2.3c-0.5-0.5-1.2-0.8-2.3-0.8
				c-1,0-1.8,0.3-2.4,0.9c-0.6,0.6-0.9,1.3-1,2.2H193.2z"/>
		</g>
		<g>
			<defs>
				<rect id="SVGID_57_" x="-1.4" y="0" width="434" height="88.6"/>
			</defs>
			<clipPath id="SVGID_58_">
				<use xlink:href="#SVGID_57_"  overflow="visible"/>
			</clipPath>
			<path clip-path="url(#SVGID_58_)" fill="#010101" d="M198.8,60L198.8,60c0-0.5,0.4-0.9,0.9-0.9h1v1.3c0.6-0.5,1.2-0.9,1.8-1.2
				c0.6-0.3,1.2-0.4,1.9-0.4c0.8,0,1.4,0.2,2,0.5c0.5,0.3,0.9,0.8,1.2,1.4c0.8-0.6,1.5-1.1,2.1-1.4c0.6-0.3,1.3-0.4,2-0.4
				c1.2,0,2.2,0.4,2.7,1.1c0.6,0.8,0.9,1.8,0.9,3.2v7.3h-1.9V64c0-0.5,0-1-0.1-1.4c0-0.5-0.1-0.8-0.3-1.1c-0.2-0.3-0.4-0.5-0.7-0.7
				c-0.3-0.2-0.7-0.2-1.2-0.2c-0.5,0-1.1,0.1-1.6,0.4c-0.5,0.3-1.1,0.6-1.6,1c0,0.2,0,0.3,0,0.5c0,0.2,0,0.4,0,0.6v7.2h-1.9V64
				c0-0.5,0-1-0.1-1.4c0-0.5-0.1-0.8-0.3-1.1c-0.2-0.3-0.4-0.5-0.7-0.7c-0.3-0.1-0.7-0.2-1.2-0.2c-0.5,0-1,0.1-1.6,0.4
				c-0.5,0.3-1,0.6-1.6,1v8.4h-1.9V60z"/>
		</g>
		<g>
			<defs>
				<rect id="SVGID_59_" x="-1.4" y="0" width="434" height="88.6"/>
			</defs>
			<clipPath id="SVGID_60_">
				<use xlink:href="#SVGID_59_"  overflow="visible"/>
			</clipPath>
			<path clip-path="url(#SVGID_60_)" fill="#010101" d="M219.3,60L219.3,60c0-0.5,0.4-0.9,0.9-0.9h1v1.3c0.6-0.5,1.2-0.9,1.8-1.2
				c0.6-0.3,1.2-0.4,1.9-0.4c0.8,0,1.4,0.2,2,0.5c0.5,0.3,0.9,0.8,1.2,1.4c0.8-0.6,1.5-1.1,2.1-1.4c0.6-0.3,1.3-0.4,2-0.4
				c1.2,0,2.2,0.4,2.7,1.1c0.6,0.8,0.9,1.8,0.9,3.2v7.3h-1.9V64c0-0.5,0-1-0.1-1.4c0-0.5-0.1-0.8-0.3-1.1c-0.2-0.3-0.4-0.5-0.7-0.7
				c-0.3-0.2-0.7-0.2-1.2-0.2c-0.5,0-1.1,0.1-1.6,0.4c-0.5,0.3-1.1,0.6-1.6,1c0,0.2,0,0.3,0,0.5s0,0.4,0,0.6v7.2h-1.9V64
				c0-0.5,0-1-0.1-1.4c0-0.5-0.1-0.8-0.3-1.1c-0.2-0.3-0.4-0.5-0.7-0.7c-0.3-0.1-0.7-0.2-1.2-0.2c-0.5,0-1,0.1-1.6,0.4
				c-0.5,0.3-1,0.6-1.6,1v8.4h-1.9L219.3,60L219.3,60z"/>
		</g>
		<g>
			<defs>
				<rect id="SVGID_61_" x="-1.4" y="0" width="434" height="88.6"/>
			</defs>
			<clipPath id="SVGID_62_">
				<use xlink:href="#SVGID_61_"  overflow="visible"/>
			</clipPath>
			<path clip-path="url(#SVGID_62_)" fill="#010101" d="M249.4,65h-8.3c0,0.7,0.1,1.3,0.3,1.8c0.2,0.5,0.5,0.9,0.9,1.3
				c0.3,0.3,0.8,0.6,1.2,0.7c0.5,0.2,1,0.2,1.6,0.2c0.8,0,1.5-0.2,2.3-0.5c0.8-0.3,1.3-0.6,1.7-0.9h0.1v2.1c-0.6,0.3-1.3,0.5-2,0.7
				c-0.7,0.2-1.4,0.3-2.1,0.3c-1.9,0-3.3-0.5-4.4-1.5c-1.1-1-1.6-2.5-1.6-4.3c0-1.8,0.5-3.3,1.5-4.4c1-1.1,2.3-1.6,4-1.6
				c1.5,0,2.7,0.4,3.5,1.3c0.8,0.9,1.2,2.2,1.2,3.8L249.4,65L249.4,65z M247.6,63.5c0-1-0.3-1.8-0.8-2.3c-0.5-0.5-1.2-0.8-2.3-0.8
				c-1,0-1.8,0.3-2.4,0.9c-0.6,0.6-0.9,1.3-1,2.2H247.6z"/>
		</g>
		<g>
			<defs>
				<rect id="SVGID_63_" x="-1.4" y="0" width="434" height="88.6"/>
			</defs>
			<clipPath id="SVGID_64_">
				<use xlink:href="#SVGID_63_"  overflow="visible"/>
			</clipPath>
			<path clip-path="url(#SVGID_64_)" fill="#010101" d="M262.7,70.4h-1.9v-1.2c-0.5,0.5-1.1,0.8-1.7,1.1c-0.6,0.3-1.2,0.4-1.9,0.4
				c-1.4,0-2.4-0.5-3.2-1.6c-0.8-1-1.2-2.5-1.2-4.3c0-1,0.1-1.8,0.4-2.6c0.3-0.8,0.6-1.4,1.1-1.9c0.5-0.5,1-0.9,1.6-1.2
				c0.6-0.3,1.2-0.4,1.9-0.4c0.6,0,1.1,0.1,1.6,0.2c0.5,0.1,0.9,0.3,1.4,0.6v-4.9h1.9V70.4z M260.8,67.6v-6.5
				c-0.5-0.2-1-0.4-1.4-0.5c-0.4-0.1-0.8-0.1-1.3-0.1c-1.1,0-1.9,0.4-2.5,1.1c-0.6,0.7-0.9,1.8-0.9,3.2c0,1.3,0.2,2.4,0.7,3.1
				c0.5,0.7,1.2,1,2.2,1c0.5,0,1.1-0.1,1.6-0.4C259.8,68.3,260.3,68,260.8,67.6"/>
		</g>
		<g>
			<defs>
				<rect id="SVGID_65_" x="-1.4" y="0" width="434" height="88.6"/>
			</defs>
			<clipPath id="SVGID_66_">
				<use xlink:href="#SVGID_65_"  overflow="visible"/>
			</clipPath>
			<path clip-path="url(#SVGID_66_)" fill="#010101" d="M276.3,65H268c0,0.7,0.1,1.3,0.3,1.8c0.2,0.5,0.5,0.9,0.9,1.3
				c0.4,0.3,0.8,0.6,1.3,0.7c0.5,0.2,1,0.2,1.6,0.2c0.8,0,1.5-0.2,2.3-0.5c0.8-0.3,1.3-0.6,1.7-0.9h0.1v2.1c-0.6,0.3-1.3,0.5-2,0.7
				c-0.7,0.2-1.4,0.3-2.1,0.3c-1.9,0-3.3-0.5-4.4-1.5c-1.1-1-1.6-2.5-1.6-4.3c0-1.8,0.5-3.3,1.5-4.4c1-1.1,2.3-1.6,4-1.6
				c1.5,0,2.7,0.4,3.5,1.3c0.8,0.9,1.2,2.2,1.2,3.8L276.3,65L276.3,65z M274.4,63.5c0-1-0.3-1.8-0.8-2.3c-0.5-0.5-1.2-0.8-2.3-0.8
				c-1,0-1.8,0.3-2.4,0.9c-0.6,0.6-0.9,1.3-1,2.2H274.4z"/>
		</g>
		<g>
			<defs>
				<rect id="SVGID_67_" x="-1.4" y="0" width="434" height="88.6"/>
			</defs>
			<clipPath id="SVGID_68_">
				<use xlink:href="#SVGID_67_"  overflow="visible"/>
			</clipPath>
			<path clip-path="url(#SVGID_68_)" fill="#010101" d="M288.5,67.2c0,1-0.4,1.9-1.3,2.5c-0.8,0.7-2,1-3.5,1c-0.8,0-1.6-0.1-2.3-0.3
				c-0.7-0.2-1.3-0.4-1.8-0.6v-2.1h0.1c0.6,0.5,1.3,0.8,2,1.1c0.7,0.3,1.5,0.4,2.1,0.4c0.8,0,1.5-0.1,2-0.4c0.5-0.3,0.7-0.7,0.7-1.3
				c0-0.4-0.1-0.8-0.4-1c-0.3-0.2-0.8-0.4-1.5-0.6c-0.3-0.1-0.6-0.1-1.1-0.2c-0.4-0.1-0.8-0.2-1.2-0.3c-1-0.3-1.7-0.7-2.1-1.2
				c-0.4-0.5-0.6-1.1-0.6-1.9c0-0.5,0.1-0.9,0.3-1.3c0.2-0.4,0.5-0.8,0.9-1.1c0.4-0.3,0.9-0.6,1.4-0.8c0.6-0.2,1.2-0.3,2-0.3
				c0.7,0,1.4,0.1,2.1,0.2c0.7,0.2,1.3,0.4,1.7,0.6v2H288c-0.5-0.4-1.1-0.7-1.8-0.9c-0.7-0.2-1.4-0.4-2-0.4c-0.7,0-1.3,0.1-1.8,0.4
				c-0.5,0.3-0.7,0.7-0.7,1.2c0,0.5,0.1,0.8,0.4,1c0.3,0.2,0.7,0.4,1.4,0.6c0.4,0.1,0.7,0.2,1.2,0.2c0.4,0.1,0.8,0.1,1.1,0.2
				c0.9,0.2,1.6,0.6,2,1C288.3,65.7,288.5,66.3,288.5,67.2"/>
		</g>
		<g>
			<defs>
				<rect id="SVGID_69_" x="-1.4" y="0" width="434" height="88.6"/>
			</defs>
			<clipPath id="SVGID_70_">
				<use xlink:href="#SVGID_69_"  overflow="visible"/>
			</clipPath>
			<path clip-path="url(#SVGID_70_)" fill="#010101" d="M309.2,64.8c0,1.8-0.5,3.3-1.4,4.3c-0.9,1.1-2.2,1.6-3.8,1.6
				c-1.6,0-2.9-0.5-3.8-1.6c-0.9-1.1-1.4-2.5-1.4-4.3c0-1.8,0.5-3.3,1.4-4.4c0.9-1.1,2.2-1.6,3.8-1.6c1.6,0,2.8,0.5,3.8,1.6
				C308.8,61.5,309.2,62.9,309.2,64.8 M307.3,64.8c0-1.5-0.3-2.6-0.9-3.3c-0.6-0.7-1.4-1.1-2.4-1.1c-1,0-1.8,0.4-2.4,1.1
				c-0.6,0.7-0.9,1.8-0.9,3.3c0,1.4,0.3,2.5,0.9,3.2c0.6,0.7,1.4,1.1,2.4,1.1c1,0,1.8-0.4,2.4-1.1C307,67.3,307.3,66.2,307.3,64.8"
				/>
		</g>
		<g>
			<defs>
				<rect id="SVGID_71_" x="-1.4" y="0" width="434" height="88.6"/>
			</defs>
			<clipPath id="SVGID_72_">
				<use xlink:href="#SVGID_71_"  overflow="visible"/>
			</clipPath>
			<path clip-path="url(#SVGID_72_)" fill="#010101" d="M312.4,60L312.4,60c0-0.5,0.4-0.9,0.9-0.9l1,0v1.7c0.8-0.6,1.4-1,2-1.3
				c0.6-0.3,1.2-0.4,1.8-0.4c0.3,0,0.6,0,0.7,0c0.2,0,0.4,0,0.7,0.1v2h-0.1c-0.3-0.1-0.6-0.1-0.8-0.1c-0.3,0-0.9-0.1-0.9-0.1
				c-0.6,0-1.2,0.1-1.7,0.4c-0.5,0.3-1.1,0.6-1.6,1v8h-1.9L312.4,60L312.4,60z"/>
		</g>
		<g>
			<defs>
				<rect id="SVGID_73_" x="-1.4" y="0" width="434" height="88.6"/>
			</defs>
			<clipPath id="SVGID_74_">
				<use xlink:href="#SVGID_73_"  overflow="visible"/>
			</clipPath>
			<path clip-path="url(#SVGID_74_)" fill="#010101" d="M331.2,69.1c0,1.9-0.4,3.3-1.3,4.2c-0.9,0.9-2.2,1.3-4,1.3
				c-0.6,0-1.2,0-1.7-0.1c-0.6-0.1-1.1-0.2-1.7-0.4v-1.9h0.1c0.3,0.1,0.8,0.3,1.5,0.5c0.7,0.2,1.4,0.3,2,0.3c0.6,0,1.2-0.1,1.6-0.2
				c0.4-0.2,0.8-0.4,1-0.7c0.2-0.3,0.4-0.6,0.5-0.9c0.1-0.4,0.1-0.8,0.1-1.2v-1c-0.6,0.5-1.1,0.8-1.6,1c-0.5,0.2-1.2,0.3-2,0.3
				c-1.3,0-2.4-0.5-3.2-1.5c-0.8-1-1.2-2.3-1.2-4.1c0-1,0.1-1.8,0.4-2.5c0.3-0.7,0.6-1.3,1.1-1.8c0.4-0.5,1-0.8,1.6-1.1
				c0.6-0.3,1.3-0.4,1.9-0.4c0.7,0,1.2,0.1,1.6,0.2c0.4,0.1,0.9,0.3,1.4,0.6l0.1-0.5h1.8V69.1z M329.3,67.3v-6.2
				c-0.5-0.2-1-0.4-1.4-0.5c-0.4-0.1-0.9-0.1-1.3-0.1c-1,0-1.9,0.3-2.5,1c-0.6,0.7-0.9,1.7-0.9,3.1c0,1.3,0.2,2.2,0.7,2.9
				c0.5,0.7,1.2,1,2.2,1c0.6,0,1.1-0.1,1.7-0.3C328.3,68,328.9,67.7,329.3,67.3"/>
		</g>
		<g>
			<defs>
				<rect id="SVGID_75_" x="-1.4" y="0" width="434" height="88.6"/>
			</defs>
			<clipPath id="SVGID_76_">
				<use xlink:href="#SVGID_75_"  overflow="visible"/>
			</clipPath>
			<path clip-path="url(#SVGID_76_)" fill="#010101" d="M343.8,70.4h-1.9v-1.2c-0.2,0.1-0.4,0.3-0.7,0.5c-0.3,0.2-0.6,0.4-0.8,0.5
				c-0.3,0.2-0.7,0.3-1.1,0.4c-0.4,0.1-0.9,0.2-1.4,0.2c-1,0-1.9-0.3-2.6-1c-0.7-0.7-1.1-1.5-1.1-2.6c0-0.9,0.2-1.6,0.5-2.1
				c0.4-0.5,0.9-0.9,1.6-1.2c0.7-0.3,1.5-0.5,2.5-0.6c1-0.1,2-0.2,3.1-0.2v-0.3c0-0.4-0.1-0.8-0.2-1.1c-0.1-0.3-0.4-0.5-0.6-0.7
				c-0.3-0.2-0.6-0.3-1-0.3c-0.4,0-0.8-0.1-1.2-0.1c-0.5,0-1.1,0.1-1.7,0.2c-0.6,0.1-1.3,0.3-1.9,0.6h-0.1v-1.9
				c0.4-0.1,0.9-0.2,1.6-0.3c0.7-0.1,1.4-0.2,2.1-0.2c0.8,0,1.5,0.1,2.1,0.2c0.6,0.1,1.1,0.4,1.5,0.7c0.4,0.3,0.7,0.7,1,1.2
				c0.2,0.5,0.3,1.1,0.3,1.8V70.4z M341.9,67.6v-3.1c-0.6,0-1.3,0.1-2,0.2c-0.8,0.1-1.4,0.2-1.9,0.3c-0.5,0.2-1,0.4-1.3,0.7
				c-0.3,0.3-0.5,0.8-0.5,1.3c0,0.7,0.2,1.1,0.6,1.5c0.4,0.3,1,0.5,1.8,0.5c0.7,0,1.3-0.1,1.8-0.4C340.9,68.3,341.4,68,341.9,67.6"
				/>
		</g>
		<g>
			<defs>
				<rect id="SVGID_77_" x="-1.4" y="0" width="434" height="88.6"/>
			</defs>
			<clipPath id="SVGID_78_">
				<use xlink:href="#SVGID_77_"  overflow="visible"/>
			</clipPath>
			<path clip-path="url(#SVGID_78_)" fill="#010101" d="M363.4,57.2h-2.1v-2h2.1V57.2z M363.2,70.4h-1.9V59.1h1.9V70.4z"/>
		</g>
		<g>
			<defs>
				<rect id="SVGID_79_" x="-1.4" y="0" width="434" height="88.6"/>
			</defs>
			<clipPath id="SVGID_80_">
				<use xlink:href="#SVGID_79_"  overflow="visible"/>
			</clipPath>
			<path clip-path="url(#SVGID_80_)" fill="#010101" d="M375.7,67.2c0,1-0.4,1.9-1.3,2.5c-0.8,0.7-2,1-3.5,1c-0.8,0-1.6-0.1-2.3-0.3
				c-0.7-0.2-1.3-0.4-1.8-0.6v-2.1h0.1c0.6,0.5,1.3,0.8,2,1.1c0.7,0.3,1.4,0.4,2.1,0.4c0.8,0,1.5-0.1,2-0.4c0.5-0.3,0.7-0.7,0.7-1.3
				c0-0.4-0.1-0.8-0.4-1c-0.2-0.2-0.7-0.4-1.5-0.6c-0.3-0.1-0.6-0.1-1.1-0.2c-0.4-0.1-0.8-0.2-1.2-0.3c-1-0.3-1.7-0.7-2.1-1.2
				c-0.4-0.5-0.6-1.1-0.6-1.9c0-0.5,0.1-0.9,0.3-1.3c0.2-0.4,0.5-0.8,0.9-1.1c0.4-0.3,0.9-0.6,1.4-0.8c0.6-0.2,1.2-0.3,2-0.3
				c0.7,0,1.4,0.1,2.1,0.2c0.7,0.2,1.3,0.4,1.7,0.6v2h-0.1c-0.5-0.4-1.1-0.7-1.8-0.9c-0.7-0.2-1.4-0.4-2-0.4c-0.7,0-1.3,0.1-1.8,0.4
				c-0.5,0.3-0.7,0.7-0.7,1.2c0,0.5,0.1,0.8,0.4,1c0.3,0.2,0.7,0.4,1.4,0.6c0.4,0.1,0.7,0.2,1.2,0.2c0.4,0.1,0.8,0.1,1.1,0.2
				c0.9,0.2,1.6,0.6,2,1C375.4,65.7,375.7,66.3,375.7,67.2"/>
		</g>
		<g>
			<defs>
				<rect id="SVGID_81_" x="-1.4" y="0" width="434" height="88.6"/>
			</defs>
			<clipPath id="SVGID_82_">
				<use xlink:href="#SVGID_81_"  overflow="visible"/>
			</clipPath>
			<path clip-path="url(#SVGID_82_)" fill="#010101" d="M388.4,70.4h-1.9v-1.2c-0.2,0.1-0.4,0.3-0.7,0.5c-0.3,0.2-0.6,0.4-0.8,0.5
				c-0.3,0.2-0.7,0.3-1.1,0.4c-0.4,0.1-0.9,0.2-1.5,0.2c-1,0-1.9-0.3-2.6-1c-0.7-0.7-1.1-1.5-1.1-2.6c0-0.9,0.2-1.6,0.5-2.1
				c0.4-0.5,0.9-0.9,1.6-1.2c0.7-0.3,1.5-0.5,2.5-0.6c1-0.1,2-0.2,3.1-0.2v-0.3c0-0.4-0.1-0.8-0.2-1.1c-0.1-0.3-0.4-0.5-0.7-0.7
				c-0.3-0.2-0.6-0.3-1-0.3c-0.4,0-0.8-0.1-1.2-0.1c-0.5,0-1.1,0.1-1.7,0.2c-0.6,0.1-1.3,0.3-1.9,0.6h-0.1v-1.9
				c0.4-0.1,0.9-0.2,1.6-0.3c0.7-0.1,1.4-0.2,2.1-0.2c0.8,0,1.5,0.1,2.1,0.2c0.6,0.1,1.1,0.4,1.5,0.7c0.4,0.3,0.7,0.7,1,1.2
				c0.2,0.5,0.3,1.1,0.3,1.8L388.4,70.4L388.4,70.4z M386.5,67.6v-3.1c-0.6,0-1.3,0.1-2,0.2c-0.8,0.1-1.4,0.2-1.9,0.3
				c-0.5,0.2-1,0.4-1.3,0.7c-0.3,0.3-0.5,0.8-0.5,1.3c0,0.7,0.2,1.1,0.6,1.5c0.4,0.3,1,0.5,1.8,0.5c0.7,0,1.3-0.1,1.8-0.4
				C385.5,68.3,386,68,386.5,67.6"/>
		</g>
		<g>
			<defs>
				<rect id="SVGID_83_" x="-1.4" y="0" width="434" height="88.6"/>
			</defs>
			<clipPath id="SVGID_84_">
				<use xlink:href="#SVGID_83_"  overflow="visible"/>
			</clipPath>
			<path clip-path="url(#SVGID_84_)" fill="#010101" d="M400.8,67.2c0,1-0.4,1.9-1.3,2.5c-0.9,0.7-2,1-3.5,1c-0.8,0-1.6-0.1-2.3-0.3
				c-0.7-0.2-1.3-0.4-1.8-0.6v-2.1h0.1c0.6,0.5,1.3,0.8,2,1.1c0.7,0.3,1.4,0.4,2.1,0.4c0.8,0,1.5-0.1,2-0.4c0.5-0.3,0.7-0.7,0.7-1.3
				c0-0.4-0.1-0.8-0.4-1c-0.3-0.2-0.7-0.4-1.5-0.6c-0.3-0.1-0.6-0.1-1.1-0.2c-0.4-0.1-0.8-0.2-1.2-0.3c-1-0.3-1.7-0.7-2.1-1.2
				c-0.4-0.5-0.6-1.1-0.6-1.9c0-0.5,0.1-0.9,0.3-1.3c0.2-0.4,0.5-0.8,0.9-1.1c0.4-0.3,0.9-0.6,1.4-0.8c0.6-0.2,1.2-0.3,2-0.3
				c0.7,0,1.4,0.1,2,0.2c0.7,0.2,1.3,0.4,1.7,0.6v2h-0.1c-0.5-0.4-1.1-0.7-1.8-0.9c-0.7-0.2-1.4-0.4-2-0.4c-0.7,0-1.3,0.1-1.8,0.4
				c-0.5,0.3-0.7,0.7-0.7,1.2c0,0.5,0.1,0.8,0.4,1c0.3,0.2,0.7,0.4,1.4,0.6c0.4,0.1,0.7,0.2,1.2,0.2c0.4,0.1,0.8,0.1,1.1,0.2
				c0.9,0.2,1.6,0.6,2.1,1C400.6,65.7,400.8,66.3,400.8,67.2"/>
		</g>
		<g>
			<defs>
				<rect id="SVGID_85_" x="-1.4" y="0" width="434" height="88.6"/>
			</defs>
			<clipPath id="SVGID_86_">
				<use xlink:href="#SVGID_85_"  overflow="visible"/>
			</clipPath>
			<path clip-path="url(#SVGID_86_)" fill="#010101" d="M406.8,70.7c0,1.3-0.3,2.3-1,3c-0.7,0.7-1.6,1-2.7,1c-0.3,0-0.6,0-1.1-0.1
				c-0.4-0.1-0.8-0.1-1.1-0.2v-1.8h0.1c0.2,0.1,0.5,0.2,0.8,0.2c0.3,0.1,0.6,0.1,0.9,0.1c0.5,0,0.9-0.1,1.2-0.2
				c0.3-0.1,0.5-0.3,0.7-0.6c0.1-0.3,0.2-0.6,0.3-1c0-0.4,0.1-0.8,0.1-1.4l0-10.7l1.9,0V70.7z M406.9,57.2h-2.1v-2h2.1V57.2z"/>
		</g>
		<g>
			<defs>
				<rect id="SVGID_87_" x="-1.4" y="0" width="434" height="88.6"/>
			</defs>
			<clipPath id="SVGID_88_">
				<use xlink:href="#SVGID_87_"  overflow="visible"/>
			</clipPath>
			<path clip-path="url(#SVGID_88_)" fill="#010101" d="M420.2,64.8c0,1.8-0.5,3.3-1.4,4.3c-0.9,1.1-2.2,1.6-3.8,1.6
				c-1.6,0-2.9-0.5-3.8-1.6c-0.9-1.1-1.4-2.5-1.4-4.3c0-1.8,0.5-3.3,1.4-4.4c0.9-1.1,2.2-1.6,3.8-1.6c1.6,0,2.8,0.5,3.8,1.6
				C419.8,61.5,420.2,62.9,420.2,64.8 M418.3,64.8c0-1.5-0.3-2.6-0.9-3.3c-0.6-0.7-1.4-1.1-2.4-1.1c-1,0-1.8,0.4-2.4,1.1
				c-0.6,0.7-0.9,1.8-0.9,3.3c0,1.4,0.3,2.5,0.9,3.2c0.6,0.7,1.4,1.1,2.4,1.1c1,0,1.8-0.4,2.4-1.1C418,67.3,418.3,66.2,418.3,64.8"
				/>
		</g>
		<g>
			<defs>
				<rect id="SVGID_89_" x="-1.4" y="0" width="434" height="88.6"/>
			</defs>
			<clipPath id="SVGID_90_">
				<use xlink:href="#SVGID_89_"  overflow="visible"/>
			</clipPath>
			<path clip-path="url(#SVGID_90_)" fill="#010101" d="M347.8,60L347.8,60c0-0.5,0.4-0.9,0.9-0.9l1,0v1.3c0.6-0.5,1.2-0.9,1.8-1.2
				c0.6-0.3,1.3-0.4,2-0.4c1.2,0,2.1,0.4,2.8,1.1c0.6,0.7,1,1.8,1,3.2v7.3h-1.9V64c0-0.5,0-1-0.1-1.5c-0.1-0.5-0.2-0.8-0.3-1.1
				c-0.2-0.3-0.4-0.5-0.7-0.6c-0.3-0.1-0.7-0.2-1.2-0.2c-0.5,0-1.1,0.1-1.6,0.4c-0.6,0.3-1.1,0.6-1.6,1v8.4h-1.9V60z"/>
		</g>
		<g>
			<defs>
				<rect id="SVGID_91_" x="-1.4" y="0" width="434" height="88.6"/>
			</defs>
			<clipPath id="SVGID_92_">
				<use xlink:href="#SVGID_91_"  overflow="visible"/>
			</clipPath>
			<path clip-path="url(#SVGID_92_)" fill="#010101" d="M423.2,60L423.2,60c0-0.5,0.4-0.9,0.9-0.9l1,0v1.3c0.6-0.5,1.2-0.9,1.8-1.2
				c0.6-0.3,1.3-0.4,2-0.4c1.2,0,2.1,0.4,2.8,1.1c0.6,0.7,1,1.8,1,3.2v7.3h-1.9V64c0-0.5,0-1-0.1-1.5c-0.1-0.5-0.2-0.8-0.3-1.1
				c-0.2-0.3-0.4-0.5-0.7-0.6c-0.3-0.1-0.7-0.2-1.2-0.2c-0.5,0-1.1,0.1-1.6,0.4c-0.6,0.3-1.1,0.6-1.6,1v8.4h-1.9V60z"/>
		</g>
	</g>
</g>
</svg>
