<?xml version="1.0" encoding="utf-8"?>
<!-- Generator: Adobe Illustrator 17.1.0, SVG Export Plug-In . SVG Version: 6.00 Build 0)  -->
<!DOCTYPE svg PUBLIC "-//W3C//DTD SVG 1.1//EN" "http://www.w3.org/Graphics/SVG/1.1/DTD/svg11.dtd">
<svg version="1.1" id="Layer_1" xmlns="http://www.w3.org/2000/svg" xmlns:xlink="http://www.w3.org/1999/xlink" x="0px" y="0px"
	 width="240.096px" height="30px" viewBox="0 0 240.096 30" enable-background="new 0 0 240.096 30" xml:space="preserve">
<rect x="214.353" y="4.269" fill="#FFFFFF" width="21.461" height="21.461"/>
<rect x="124.283" y="4.27" fill="#FFFFFF" width="21.708" height="21.708"/>
<rect x="154.183" y="4.145" fill="#FFFFFF" width="21.708" height="21.708"/>
<rect x="184.207" y="4.145" fill="#FFFFFF" width="21.708" height="21.708"/>
<circle fill="#FFFFFF" cx="15.002" cy="15.209" r="10.625"/>
<circle fill="#FFFFFF" cx="45" cy="14.999" r="10.625"/>
<circle fill="#FFFFFF" cx="75" cy="14.999" r="10.625"/>
<circle fill="#FFFFFF" cx="105" cy="15.353" r="10.625"/>
<g>
	<path fill="#F19520" d="M15.01,29.511c-8.012,0-14.522-6.508-14.522-14.513c0-7.995,6.51-14.51,14.522-14.51
		c7.993,0,14.506,6.515,14.506,14.51C29.516,23.003,23.003,29.511,15.01,29.511 M15.01,4.92c-5.564,0-10.085,4.528-10.085,10.078
		c0,5.562,4.521,10.088,10.085,10.088c5.552,0,10.074-4.526,10.074-10.088C25.083,9.448,20.561,4.92,15.01,4.92"/>
	<path fill="#FFFFFF" d="M15.01,30C6.733,30,0,23.271,0,14.999C0,6.729,6.733,0,15.01,0c8.268,0,14.994,6.729,14.994,14.999
		C30.004,23.271,23.277,30,15.01,30z M15.01,0.976c-7.738,0-14.033,6.29-14.033,14.022c0,7.733,6.295,14.025,14.033,14.025
		c7.73,0,14.018-6.292,14.018-14.025C29.028,7.267,22.739,0.976,15.01,0.976z M15.01,25.574c-5.83,0-10.573-4.744-10.573-10.575
		c0-5.826,4.743-10.566,10.573-10.566c5.824,0,10.562,4.74,10.562,10.566C25.571,20.83,20.833,25.574,15.01,25.574z M15.01,5.409
		c-5.291,0-9.597,4.302-9.597,9.59c0,5.293,4.305,9.599,9.597,9.599c5.286,0,9.586-4.306,9.586-9.599
		C24.595,9.711,20.295,5.409,15.01,5.409z"/>
</g>
<g>
	<path fill="#F19520" d="M45.008,29.511c-8.012,0-14.522-6.508-14.522-14.513c0-7.995,6.51-14.51,14.522-14.51
		c7.993,0,14.506,6.515,14.506,14.51C59.514,23.003,53.001,29.511,45.008,29.511 M45.008,4.92c-5.564,0-10.085,4.528-10.085,10.078
		c0,5.562,4.521,10.088,10.085,10.088c5.552,0,10.074-4.526,10.074-10.088C55.081,9.448,50.559,4.92,45.008,4.92"/>
	<path fill="#FFFFFF" d="M45.008,30c-8.276,0-15.01-6.729-15.01-15.001C29.998,6.729,36.731,0,45.008,0
		c8.268,0,14.994,6.729,14.994,14.999C60.002,23.271,53.275,30,45.008,30z M45.008,0.976c-7.738,0-14.033,6.29-14.033,14.022
		c0,7.733,6.295,14.025,14.033,14.025c7.73,0,14.018-6.292,14.018-14.025C59.026,7.267,52.737,0.976,45.008,0.976z M45.008,25.574
		c-5.83,0-10.573-4.744-10.573-10.575c0-5.826,4.743-10.566,10.573-10.566c5.824,0,10.562,4.74,10.562,10.566
		C55.569,20.83,50.831,25.574,45.008,25.574z M45.008,5.409c-5.291,0-9.597,4.302-9.597,9.59c0,5.293,4.305,9.599,9.597,9.599
		c5.286,0,9.586-4.306,9.586-9.599C54.593,9.711,50.293,5.409,45.008,5.409z"/>
</g>
<circle cx="45" cy="15.352" r="5.526"/>
<g>
	<path fill="#A7A9AC" d="M75.008,29.511c-8.012,0-14.522-6.508-14.522-14.513c0-7.995,6.51-14.51,14.522-14.51
		c7.993,0,14.506,6.515,14.506,14.51C89.514,23.003,83.001,29.511,75.008,29.511 M75.008,4.92c-5.564,0-10.085,4.528-10.085,10.078
		c0,5.562,4.521,10.088,10.085,10.088c5.552,0,10.074-4.526,10.074-10.088C85.081,9.448,80.559,4.92,75.008,4.92"/>
	<path fill="#FFFFFF" d="M75.008,30c-8.276,0-15.01-6.729-15.01-15.001C59.998,6.729,66.731,0,75.008,0
		c8.268,0,14.994,6.729,14.994,14.999C90.002,23.271,83.275,30,75.008,30z M75.008,0.976c-7.738,0-14.033,6.29-14.033,14.022
		c0,7.733,6.295,14.025,14.033,14.025c7.73,0,14.018-6.292,14.018-14.025C89.026,7.267,82.737,0.976,75.008,0.976z M75.008,25.574
		c-5.83,0-10.573-4.744-10.573-10.575c0-5.826,4.743-10.566,10.573-10.566c5.824,0,10.562,4.74,10.562,10.566
		C85.569,20.83,80.831,25.574,75.008,25.574z M75.008,5.409c-5.291,0-9.597,4.302-9.597,9.59c0,5.293,4.305,9.599,9.597,9.599
		c5.286,0,9.586-4.306,9.586-9.599C84.593,9.711,80.293,5.409,75.008,5.409z"/>
</g>
<g>
	<path fill="#A7A9AC" d="M105.008,29.511c-8.012,0-14.522-6.508-14.522-14.513c0-7.995,6.51-14.51,14.522-14.51
		c7.993,0,14.506,6.515,14.506,14.51C119.514,23.003,113.001,29.511,105.008,29.511 M105.008,4.92
		c-5.564,0-10.085,4.528-10.085,10.078c0,5.562,4.521,10.088,10.085,10.088c5.552,0,10.074-4.526,10.074-10.088
		C115.081,9.448,110.559,4.92,105.008,4.92"/>
	<path fill="#FFFFFF" d="M105.008,30c-8.276,0-15.01-6.729-15.01-15.001C89.998,6.729,96.731,0,105.008,0
		c8.268,0,14.994,6.729,14.994,14.999C120.002,23.271,113.275,30,105.008,30z M105.008,0.976c-7.738,0-14.033,6.29-14.033,14.022
		c0,7.733,6.295,14.025,14.033,14.025c7.73,0,14.018-6.292,14.018-14.025C119.026,7.267,112.737,0.976,105.008,0.976z
		 M105.008,25.574c-5.83,0-10.573-4.744-10.573-10.575c0-5.826,4.743-10.566,10.573-10.566c5.824,0,10.562,4.74,10.562,10.566
		C115.569,20.83,110.831,25.574,105.008,25.574z M105.008,5.409c-5.291,0-9.597,4.302-9.597,9.59c0,5.293,4.305,9.599,9.597,9.599
		c5.286,0,9.586-4.306,9.586-9.599C114.593,9.711,110.293,5.409,105.008,5.409z"/>
</g>
<circle fill="#6D6E71" cx="105" cy="15.352" r="5.526"/>
<g>
	<path fill="#F19520" d="M145.244,4.769V25.23h-20.461V4.769h20.45H145.244z M149.525,0.488h-29.023v29.023h29.023V0.488
		L149.525,0.488z"/>
	<path fill="#FFFFFF" d="M150.025,30.012h-30.023V-0.012h30.023V30.012z M121.002,29.012h28.023V0.988h-28.023V29.012z
		 M145.744,25.73h-21.461V4.27h21.45l0.011,0.5V25.73z M125.283,24.73h19.461V5.27h-19.461V24.73z"/>
</g>
<g>
	<path fill="#F19520" d="M175.268,4.769V25.23h-20.461V4.769h20.45H175.268z M179.549,0.488h-29.023v29.023h29.023V0.488
		L179.549,0.488z"/>
	<path fill="#FFFFFF" d="M180.049,30.011h-30.023V-0.012h30.023V30.011z M151.025,29.011h28.023V0.988h-28.023V29.011z
		 M175.768,25.73h-21.461V4.269h21.45l0.011,0.5V25.73z M155.307,24.73h19.461V5.269h-19.461V24.73z"/>
</g>
<polygon points="163.822,23.043 156.795,16.016 156.795,9.75 163.822,16.801 173.279,7.375 173.279,13.585 "/>
<g>
	<path fill="#A7A9AC" d="M205.291,4.769V25.23H184.83V4.769h20.45H205.291z M209.572,0.488h-29.023v29.023h29.023V0.488
		L209.572,0.488z"/>
	<path fill="#FFFFFF" d="M210.072,30.011h-30.023V-0.012h30.023V30.011z M181.049,29.011h28.023V0.988h-28.023V29.011z
		 M205.791,25.73H184.33V4.269h21.45l0.011,0.5V25.73z M185.33,24.73h19.461V5.269H185.33V24.73z"/>
</g>
<g>
	<path fill="#A7A9AC" d="M235.314,4.769v20.461h-20.461V4.769h20.45H235.314z M239.596,0.487h-29.023v29.023h29.023V0.487
		L239.596,0.487z"/>
	<path fill="#FFFFFF" d="M240.096,30.011h-30.023V-0.012h30.023V30.011z M211.072,29.011h28.023V0.988h-28.023V29.011z
		 M235.814,25.73h-21.461V4.269h21.45l0.011,0.5V25.73z M215.353,24.73h19.461V5.269h-19.461V24.73z"/>
</g>
<polygon fill="#6D6E71" points="223.869,23.043 216.842,16.015 216.842,9.75 223.869,16.8 233.326,7.375 233.326,13.585 "/>
</svg>
