<?xml version="1.0" encoding="utf-8"?>
<!-- Generator: Adobe Illustrator 18.0.0, SVG Export Plug-In . SVG Version: 6.00 Build 0)  -->
<!DOCTYPE svg PUBLIC "-//W3C//DTD SVG 1.1//EN" "http://www.w3.org/Graphics/SVG/1.1/DTD/svg11.dtd">
<svg version="1.1" id="Layer_1" xmlns="http://www.w3.org/2000/svg" xmlns:xlink="http://www.w3.org/1999/xlink" x="0px" y="0px"
	 viewBox="0 9.1 100 32.7" enable-background="new 0 9.1 100 32.7" xml:space="preserve">
<path fill="#FDC301" d="M2.6,14.5c-0.7,0-1.4-0.3-1.9-0.8C0.3,13.2,0,12.6,0,11.9c0-0.7,0.3-1.3,0.8-1.8s1.1-0.8,1.8-0.8
	c0.8,0,1.4,0.3,1.9,0.8s0.8,1.1,0.8,1.8c0,0.7-0.3,1.4-0.8,1.9S3.4,14.5,2.6,14.5z"/>
<rect x="0.5" y="16.8" width="4.3" height="16.7"/>
<path d="M18.6,33.8c-3.7,0-6.3-1-8-3.1c-1.6-2-2.5-4.7-2.5-7.8c0-3.7,1-6.7,2.9-8.9c2-2.3,4.8-3.4,8.5-3.4c1.7,0,3.3,0.2,4.8,0.6
	l-0.5,4c-1.5-0.4-3-0.7-4.6-0.7c-2,0-3.6,0.7-4.7,2.1s-1.6,3.2-1.6,5.5c0,2.5,0.5,4.5,1.6,5.8c1.1,1.3,2.7,2,5,2
	c0.7,0,1.4-0.1,2.3-0.3c0.8-0.2,1.5-0.4,2.1-0.7l0.5,3.9c-0.9,0.3-1.8,0.6-2.8,0.7C20.7,33.6,19.7,33.8,18.6,33.8z"/>
<path d="M36.8,33.4c0-0.5,0-1,0-1.5c0-0.5,0.1-0.9,0.1-1.4c-0.4,1-1.1,1.7-2.1,2.3c-0.9,0.6-2,0.9-3.3,0.9c-1.5,0-2.7-0.4-3.5-1.2
	c-0.8-0.8-1.3-1.9-1.3-3.2c0-2,0.9-3.5,2.6-4.5c1.8-1.1,4.1-1.6,7-1.6v-0.9c0-0.9-0.2-1.6-0.7-2s-1.3-0.6-2.5-0.6
	c-0.8,0-1.6,0.1-2.5,0.3c-0.9,0.2-1.7,0.5-2.4,1l-0.4-3.6c0.9-0.3,1.8-0.6,2.9-0.8c1-0.2,2.1-0.3,3.1-0.3c2.5,0,4.3,0.5,5.3,1.5
	s1.5,2.4,1.5,4.3v7l0.1,4.3C40.7,33.4,36.8,33.4,36.8,33.4z M36.5,26c-2.1,0-3.5,0.2-4.4,0.7c-0.7,0.5-1.1,1.1-1.1,1.9
	c0,0.5,0.2,1,0.5,1.3s0.8,0.5,1.5,0.5c1,0,1.9-0.4,2.6-1.2c0.7-0.8,1-1.7,1-2.8L36.5,26L36.5,26z"/>
<path d="M54.2,20.5c-0.4-0.1-0.7-0.1-1.1-0.1c-2.4,0-3.6,2-3.6,6.1v6.8h-4.3V16.8h4.1c0,0.5,0,1-0.1,1.6c0,0.5-0.1,1.1-0.2,1.8
	c0.5-1.2,1.1-2.1,2-2.7c0.9-0.7,2-1,3.4-1L54.2,20.5z"/>
<path d="M70.4,25.8H60.1c0,3.1,1.5,4.7,4.6,4.7c1.7,0,3.4-0.4,4.9-1.1l0.4,3.3c-1.8,0.7-3.8,1.1-6,1.1c-2.7,0-4.8-0.7-6.2-2.1
	s-2.1-3.5-2.1-6.4c0-2.6,0.7-4.8,2.1-6.4c1.4-1.6,3.3-2.5,5.8-2.5c2.3,0,4.1,0.7,5.3,2.1c1.2,1.4,1.8,3.2,1.8,5.4c0,0.4,0,0.8,0,1.2
	C70.5,25.4,70.4,25.5,70.4,25.8z M63.4,19.5c-0.9,0-1.7,0.3-2.2,0.9c-0.6,0.6-0.9,1.4-1.1,2.4h6.2c0-1-0.2-1.9-0.7-2.4
	C65.1,19.8,64.3,19.5,63.4,19.5z"/>
<path d="M78.9,21.5c0,0.8-0.3,1.4-0.8,1.9s-1.2,0.8-1.9,0.8c-0.7,0-1.4-0.3-1.9-0.8c-0.5-0.5-0.8-1.2-0.8-1.9c0-0.7,0.3-1.4,0.8-1.9
	s1.2-0.8,1.9-0.8c0.8,0,1.4,0.3,1.9,0.8C78.7,20.1,78.9,20.8,78.9,21.5z M78.9,31c0,0.8-0.3,1.4-0.8,1.9s-1.2,0.8-1.9,0.8
	c-0.7,0-1.4-0.3-1.9-0.8s-0.8-1.2-0.8-1.9c0-0.7,0.3-1.4,0.8-1.9s1.2-0.8,1.9-0.8c0.8,0,1.4,0.3,1.9,0.8
	C78.7,29.6,78.9,30.2,78.9,31z"/>
<path d="M82,27.8v-3.4h8.3v3.4H82z"/>
<path d="M95,41.8h-4.1c2.9-4.8,4.4-10.2,4.4-16.1c0-2.9-0.4-5.7-1.1-8.4c-0.8-2.7-1.8-5.3-3.3-7.7H95c1.5,2.6,2.7,5.2,3.4,7.9
	c0.7,2.7,1.1,5.4,1.1,8.2c0,2.9-0.4,5.7-1.1,8.3C97.8,36.6,96.6,39.2,95,41.8z"/>
</svg>
